<svg width="148" height="441" viewBox="0 0 148 441" fill="none" xmlns="http://www.w3.org/2000/svg">
<path d="M0 16C0 7.16344 7.16344 0 16 0H100V441H16C7.16345 441 0 433.837 0 425V16Z" fill="#1570EF"/>
<path d="M64.8265 213.972C64.8265 213.972 101.828 268.119 96.0932 287.835C90.3589 307.552 86.7848 306.903 72.2863 289.32C57.7877 271.738 64.8265 213.972 64.8265 213.972Z" fill="#194185"/>
<path d="M47.0535 250.329C47.0535 250.329 88.8631 270.944 88.0829 287.782C87.3027 304.62 84.1931 305.894 68.5473 300.406C52.9015 294.919 47.0535 250.329 47.0535 250.329Z" fill="#EFF8FF"/>
<mask id="mask0_0_1" style="mask-type:alpha" maskUnits="userSpaceOnUse" x="47" y="250" width="42" height="54">
<path d="M47.053 250.329C47.053 250.329 88.8627 270.944 88.0824 287.782C87.3022 304.62 84.1926 305.894 68.5468 300.406C52.901 294.919 47.053 250.329 47.053 250.329Z" fill="#EFF8FF"/>
</mask>
<g mask="url(#mask0_0_1)">
<path d="M46.4081 248.548C63.9348 292.724 82.957 303.785 82.957 303.785" stroke="#475467" stroke-width="1.28"/>
<path d="M46.5158 258.283C60.8599 290.568 66.9654 251.204 66.9654 251.204" stroke="#475467" stroke-width="1.28"/>
<path d="M50.3411 282.988C84.42 309.477 73.7967 261.972 73.7967 261.972" stroke="#475467" stroke-width="1.28"/>
</g>
<path d="M88 367C71.4315 367 58 353.569 58 337V309.222C58 307.153 58 306.118 58.3015 305.29C58.807 303.901 59.9011 302.807 61.2899 302.302C62.1184 302 63.153 302 65.2222 302H110.778C112.847 302 113.882 302 114.71 302.302C116.099 302.807 117.193 303.901 117.698 305.29C118 306.118 118 307.153 118 309.222V337C118 353.569 104.569 367 88 367ZM88 367V382M118 312H130.5C132.83 312 133.995 312 134.913 312.381C136.139 312.888 137.112 313.861 137.619 315.087C138 316.005 138 317.17 138 319.5V322C138 326.65 138 328.975 137.489 330.882C136.102 336.059 132.059 340.102 126.882 341.489C124.975 342 122.65 342 118 342M58 312H45.5C43.1703 312 42.0054 312 41.0866 312.381C39.8614 312.888 38.8881 313.861 38.3806 315.087C38 316.005 38 317.17 38 319.5V322C38 326.65 38 328.975 38.5111 330.882C39.8981 336.059 43.9413 340.102 49.1177 341.489C51.0252 342 53.3501 342 58 342M65.2222 402H110.778C112.005 402 113 401.005 113 399.778C113 389.959 105.041 382 95.2222 382H80.7778C70.9594 382 63 389.959 63 399.778C63 401.005 63.9949 402 65.2222 402Z" stroke="white" stroke-width="8" stroke-linecap="round" stroke-linejoin="round"/>
</svg>
