<svg width="559" height="393" viewBox="0 0 559 393" fill="none" xmlns="http://www.w3.org/2000/svg">
<rect y="393" width="393" height="104" rx="36" transform="rotate(-90 0 393)" fill="#1570EF"/>
<mask id="mask0_256_1183" style="mask-type:alpha" maskUnits="userSpaceOnUse" x="0" y="36" width="104" height="271">
<rect y="306.5" width="270" height="103.5" rx="36" transform="rotate(-90 0 306.5)" fill="#53B1FD"/>
</mask>
<g mask="url(#mask0_256_1183)">
<path d="M63.5506 99.8159L102.89 135.889M33.7599 97.0562C36.7584 92.0828 40.339 87.2723 44.4931 82.7421C48.6831 78.1728 53.2076 74.1601 57.9473 70.7232M51.8748 115.214L48.5654 126.789C48.1842 128.122 48.5257 129.558 49.4662 130.576L59.553 141.501C61.618 143.738 65.328 142.916 66.2558 140.017L69.7492 129.1M92.9603 103.787L103.534 99.363C106.342 98.1881 106.84 94.421 104.433 92.5571L92.6773 83.4525C91.5811 82.6035 90.1216 82.3875 88.8264 82.8824L77.5805 87.1801M27.8119 76.1181L31.901 95.4519C32.3425 97.5396 33.4596 99.4236 35.0795 100.813L64.2745 125.845C71.842 132.334 83.1917 131.653 89.9289 124.306C96.6662 116.959 96.3635 105.593 89.2449 98.6143L61.7818 71.6928C60.258 70.1991 58.2844 69.249 56.1664 68.9896L36.5515 66.5872C31.14 65.9245 26.6837 70.7841 27.8119 76.1181Z" stroke="#FCFCFD" stroke-width="6" stroke-linecap="round" stroke-linejoin="round"/>
</g>
<path d="M19 331.58V328.1L34.6 334.61C38.42 336.21 40.22 338.8 40 342.38H36.79C36.91 341.2 36.73 340.25 36.25 339.53C35.77 338.79 34.97 338.2 33.85 337.76L19 344.75V341.27L30.07 336.17L19 331.58ZM40.39 321.091C40.39 323.351 39.63 325.241 38.11 326.761C36.59 328.261 34.72 329.011 32.5 329.011C30.26 329.011 28.39 328.261 26.89 326.761C25.37 325.241 24.61 323.351 24.61 321.091C24.61 319.631 24.96 318.301 25.66 317.101C26.36 315.901 27.3 315.001 28.48 314.401L30.1 317.191C29.38 317.531 28.82 318.051 28.42 318.751C28 319.431 27.79 320.221 27.79 321.121C27.79 322.441 28.24 323.551 29.14 324.451C30.04 325.331 31.16 325.771 32.5 325.771C33.84 325.771 34.96 325.331 35.86 324.451C36.76 323.551 37.21 322.441 37.21 321.121C37.21 320.241 37 319.451 36.58 318.751C36.16 318.031 35.6 317.491 34.9 317.131L36.49 314.341C37.69 314.981 38.64 315.901 39.34 317.101C40.04 318.301 40.39 319.631 40.39 321.091ZM40 298.651V302.521L33.07 308.671H40V311.911H25V308.671H31.63L25 302.851L25 298.891L32.35 305.491L40 298.651ZM40.39 290.592C40.39 292.792 39.63 294.662 38.11 296.202C36.59 297.742 34.72 298.512 32.5 298.512C30.28 298.512 28.41 297.742 26.89 296.202C25.37 294.662 24.61 292.792 24.61 290.592C24.61 288.372 25.37 286.502 26.89 284.982C28.41 283.442 30.28 282.672 32.5 282.672C34.72 282.672 36.59 283.442 38.11 284.982C39.63 286.502 40.39 288.372 40.39 290.592ZM35.89 293.922C36.79 293.022 37.24 291.912 37.24 290.592C37.24 289.272 36.79 288.162 35.89 287.262C34.99 286.362 33.86 285.912 32.5 285.912C31.14 285.912 30.01 286.362 29.11 287.262C28.21 288.162 27.76 289.272 27.76 290.592C27.76 291.912 28.21 293.022 29.11 293.922C30.01 294.822 31.14 295.272 32.5 295.272C33.86 295.272 34.99 294.822 35.89 293.922ZM24.61 271.253C24.61 269.193 25.38 267.433 26.92 265.973C28.44 264.513 30.3 263.783 32.5 263.783C34.72 263.783 36.59 264.513 38.11 265.973C39.63 267.433 40.39 269.193 40.39 271.253C40.39 273.533 39.55 275.283 37.87 276.503H46V279.743H25V276.503H27.16C25.46 275.283 24.61 273.533 24.61 271.253ZM35.95 275.153C36.85 274.253 37.3 273.123 37.3 271.763C37.3 270.403 36.85 269.273 35.95 268.373C35.03 267.473 33.88 267.023 32.5 267.023C31.12 267.023 29.98 267.473 29.08 268.373C28.16 269.273 27.7 270.403 27.7 271.763C27.7 273.123 28.16 274.253 29.08 275.153C29.98 276.053 31.12 276.503 32.5 276.503C33.88 276.503 35.03 276.053 35.95 275.153ZM33.88 258.296C35.02 258.056 35.9 257.506 36.52 256.646C37.12 255.786 37.42 254.736 37.42 253.496C37.42 251.776 36.8 250.486 35.56 249.626L37.12 246.956C39.3 248.436 40.39 250.626 40.39 253.526C40.39 255.966 39.65 257.936 38.17 259.436C36.67 260.936 34.78 261.686 32.5 261.686C30.26 261.686 28.39 260.946 26.89 259.466C25.37 257.986 24.61 256.086 24.61 253.766C24.61 251.566 25.38 249.766 26.92 248.366C28.46 246.946 30.33 246.236 32.53 246.236C32.87 246.236 33.32 246.276 33.88 246.356V258.296ZM31.24 258.326V249.506C30.02 249.726 29.1 250.236 28.48 251.036C27.86 251.816 27.55 252.736 27.55 253.796C27.55 254.996 27.88 255.996 28.54 256.796C29.2 257.596 30.1 258.106 31.24 258.326ZM25 233.275V230.035H40V233.275H34.03V240.145H40V243.385H25V240.145H30.97V233.275H25ZM25 216.166V212.926H40V216.166H34.03V223.036H40V226.276H25V223.036H30.97V216.166H25ZM25 197.287V194.047H40V197.287H37.84C39.54 198.507 40.39 200.257 40.39 202.537C40.39 204.597 39.63 206.357 38.11 207.817C36.57 209.277 34.7 210.007 32.5 210.007C30.28 210.007 28.41 209.277 26.89 207.817C25.37 206.357 24.61 204.597 24.61 202.537C24.61 200.257 25.45 198.507 27.13 197.287H25ZM35.95 205.417C36.85 204.517 37.3 203.387 37.3 202.027C37.3 200.667 36.85 199.537 35.95 198.637C35.03 197.737 33.88 197.287 32.5 197.287C31.12 197.287 29.98 197.737 29.08 198.637C28.16 199.537 27.7 200.667 27.7 202.027C27.7 203.387 28.16 204.517 29.08 205.417C29.98 206.317 31.12 206.767 32.5 206.767C33.88 206.767 35.03 206.317 35.95 205.417ZM25 178.66H40V181.84H34.96V183.64L40 187.45V191.26L34.66 187.21C34.32 188.25 33.72 189.09 32.86 189.73C32 190.35 31.04 190.66 29.98 190.66C28.6 190.66 27.43 190.17 26.47 189.19C25.49 188.19 25 186.91 25 185.35V178.66ZM32.17 185.17V181.84H27.94V185.17C27.94 185.83 28.13 186.38 28.51 186.82C28.89 187.26 29.41 187.48 30.07 187.48C30.71 187.48 31.22 187.26 31.6 186.82C31.98 186.38 32.17 185.83 32.17 185.17ZM61 331.73V328.49H76V331.73H73.84C75.54 332.95 76.39 334.7 76.39 336.98C76.39 339.04 75.63 340.8 74.11 342.26C72.57 343.72 70.7 344.45 68.5 344.45C66.28 344.45 64.41 343.72 62.89 342.26C61.37 340.8 60.61 339.04 60.61 336.98C60.61 334.7 61.45 332.95 63.13 331.73H61ZM71.95 339.86C72.85 338.96 73.3 337.83 73.3 336.47C73.3 335.11 72.85 333.98 71.95 333.08C71.03 332.18 69.88 331.73 68.5 331.73C67.12 331.73 65.98 332.18 65.08 333.08C64.16 333.98 63.7 335.11 63.7 336.47C63.7 337.83 64.16 338.96 65.08 339.86C65.98 340.76 67.12 341.21 68.5 341.21C69.88 341.21 71.03 340.76 71.95 339.86ZM72.94 311.514V309.504H80.02V312.684H76V322.974H80.02V326.154H72.94V324.324C71.64 323.404 69.83 322.944 67.51 322.944H61V311.514H72.94ZM72.94 320.754V314.694H63.97V319.764H67.51C69.65 319.764 71.46 320.094 72.94 320.754ZM61 295.578V292.338H76V295.578H73.84C75.54 296.798 76.39 298.548 76.39 300.828C76.39 302.888 75.63 304.648 74.11 306.108C72.57 307.568 70.7 308.298 68.5 308.298C66.28 308.298 64.41 307.568 62.89 306.108C61.37 304.648 60.61 302.888 60.61 300.828C60.61 298.548 61.45 296.798 63.13 295.578H61ZM71.95 303.708C72.85 302.808 73.3 301.678 73.3 300.318C73.3 298.958 72.85 297.828 71.95 296.928C71.03 296.028 69.88 295.578 68.5 295.578C67.12 295.578 65.98 296.028 65.08 296.928C64.16 297.828 63.7 298.958 63.7 300.318C63.7 301.678 64.16 302.808 65.08 303.708C65.98 304.608 67.12 305.058 68.5 305.058C69.88 305.058 71.03 304.608 71.95 303.708ZM61 275.211H76V278.451H64.06V285.321H76V288.561H61L61 275.211ZM61 259.572V256.332H76V259.572H73.84C75.54 260.792 76.39 262.542 76.39 264.822C76.39 266.882 75.63 268.642 74.11 270.102C72.57 271.562 70.7 272.292 68.5 272.292C66.28 272.292 64.41 271.562 62.89 270.102C61.37 268.642 60.61 266.882 60.61 264.822C60.61 262.542 61.45 260.792 63.13 259.572H61ZM71.95 267.702C72.85 266.802 73.3 265.672 73.3 264.312C73.3 262.952 72.85 261.822 71.95 260.922C71.03 260.022 69.88 259.572 68.5 259.572C67.12 259.572 65.98 260.022 65.08 260.922C64.16 261.822 63.7 262.952 63.7 264.312C63.7 265.672 64.16 266.802 65.08 267.702C65.98 268.602 67.12 269.052 68.5 269.052C69.88 269.052 71.03 268.602 71.95 267.702ZM61 241.095H64.12V245.985H76V249.225H64.12V254.145H61V241.095ZM72.94 226.003V223.543H80.02V226.723H76L76 238.903H61V235.663H72.94V229.243H61V226.003H72.94ZM61 210.055V207.565H76V210.745H66.46L76 218.425V220.915H61V217.735H70.51L61 210.055ZM61 192.195H76V195.375H70.96V197.175L76 200.985V204.795L70.66 200.745C70.32 201.785 69.72 202.625 68.86 203.265C68 203.885 67.04 204.195 65.98 204.195C64.6 204.195 63.43 203.705 62.47 202.725C61.49 201.725 61 200.445 61 198.885V192.195ZM68.17 198.705V195.375H63.94V198.705C63.94 199.365 64.13 199.915 64.51 200.355C64.89 200.795 65.41 201.015 66.07 201.015C66.71 201.015 67.22 200.795 67.6 200.355C67.98 199.915 68.17 199.365 68.17 198.705ZM69.4 187.764L61 188.424H55V184.524H61L69.4 185.214V187.764ZM75.7 184.884C76.14 185.324 76.36 185.854 76.36 186.474C76.36 187.094 76.14 187.624 75.7 188.064C75.26 188.504 74.73 188.724 74.11 188.724C73.49 188.724 72.96 188.514 72.52 188.094C72.08 187.654 71.86 187.114 71.86 186.474C71.86 185.854 72.08 185.324 72.52 184.884C72.96 184.444 73.49 184.224 74.11 184.224C74.73 184.224 75.26 184.444 75.7 184.884Z" fill="#FCFCFD"/>
<rect x="125" y="247" width="351" height="145.5" rx="36" fill="white"/>
<path d="M185.395 275.816V269.5M185.395 313.711V307.395M163.289 291.605H169.605M201.184 291.605H207.5M194.237 300.447L198.026 304.237M194.237 282.763L198.026 278.974M147.5 329.5L175.921 301.079M176.553 282.763L172.763 278.974" stroke="#1570EF" stroke-width="6" stroke-linecap="round" stroke-linejoin="round"/>
<path d="M237.716 275.6H240.2V294.5H237.716V285.995H228.536V294.5H226.025V275.6H228.536V283.619H237.716V275.6ZM255.18 281H257.529V294.5H255.18V292.178C254.01 293.96 252.309 294.851 250.077 294.851C248.187 294.851 246.576 294.167 245.244 292.799C243.912 291.413 243.246 289.73 243.246 287.75C243.246 285.77 243.912 284.096 245.244 282.728C246.576 281.342 248.187 280.649 250.077 280.649C252.309 280.649 254.01 281.54 255.18 283.322V281ZM250.374 292.583C251.742 292.583 252.885 292.124 253.803 291.206C254.721 290.27 255.18 289.118 255.18 287.75C255.18 286.382 254.721 285.239 253.803 284.321C252.885 283.385 251.742 282.917 250.374 282.917C249.024 282.917 247.89 283.385 246.972 284.321C246.054 285.239 245.595 286.382 245.595 287.75C245.595 289.118 246.054 290.27 246.972 291.206C247.89 292.124 249.024 292.583 250.374 292.583ZM267.433 294.851C265.399 294.851 263.707 294.176 262.357 292.826C261.007 291.458 260.332 289.766 260.332 287.75C260.332 285.734 261.007 284.051 262.357 282.701C263.707 281.333 265.399 280.649 267.433 280.649C268.765 280.649 269.962 280.973 271.024 281.621C272.086 282.251 272.878 283.106 273.4 284.186L271.429 285.32C271.087 284.6 270.556 284.024 269.836 283.592C269.134 283.16 268.333 282.944 267.433 282.944C266.083 282.944 264.949 283.403 264.031 284.321C263.131 285.239 262.681 286.382 262.681 287.75C262.681 289.1 263.131 290.234 264.031 291.152C264.949 292.07 266.083 292.529 267.433 292.529C268.333 292.529 269.143 292.322 269.863 291.908C270.583 291.476 271.132 290.9 271.51 290.18L273.508 291.341C272.932 292.403 272.104 293.258 271.024 293.906C269.944 294.536 268.747 294.851 267.433 294.851ZM285.66 281V283.268H281.07V294.5H278.721V283.268H274.104V281H285.66ZM295.171 280.649C297.061 280.649 298.672 281.342 300.004 282.728C301.336 284.096 302.002 285.77 302.002 287.75C302.002 289.73 301.336 291.413 300.004 292.799C298.672 294.167 297.061 294.851 295.171 294.851C292.939 294.851 291.238 293.96 290.068 292.178V299.9H287.719V281H290.068V283.322C291.238 281.54 292.939 280.649 295.171 280.649ZM294.874 292.583C296.224 292.583 297.358 292.124 298.276 291.206C299.194 290.27 299.653 289.118 299.653 287.75C299.653 286.382 299.194 285.239 298.276 284.321C297.358 283.385 296.224 282.917 294.874 282.917C293.506 282.917 292.363 283.385 291.445 284.321C290.527 285.239 290.068 286.382 290.068 287.75C290.068 289.118 290.527 290.27 291.445 291.206C292.363 292.124 293.506 292.583 294.874 292.583ZM316.198 292.799C314.812 294.167 313.129 294.851 311.149 294.851C309.169 294.851 307.486 294.167 306.1 292.799C304.732 291.431 304.048 289.748 304.048 287.75C304.048 285.752 304.732 284.069 306.1 282.701C307.486 281.333 309.169 280.649 311.149 280.649C313.129 280.649 314.812 281.333 316.198 282.701C317.584 284.069 318.277 285.752 318.277 287.75C318.277 289.748 317.584 291.431 316.198 292.799ZM311.149 292.556C312.499 292.556 313.633 292.097 314.551 291.179C315.469 290.261 315.928 289.118 315.928 287.75C315.928 286.382 315.469 285.239 314.551 284.321C313.633 283.403 312.499 282.944 311.149 282.944C309.817 282.944 308.692 283.403 307.774 284.321C306.856 285.239 306.397 286.382 306.397 287.75C306.397 289.118 306.856 290.261 307.774 291.179C308.692 292.097 309.817 292.556 311.149 292.556ZM323.261 278.975V276.923H330.551V278.975H323.261ZM330.848 281H332.738V294.5H330.416V285.023L322.937 294.5H321.047V281H323.369V290.477L330.848 281ZM347.734 294.5H344.818L338.662 288.101V294.5H336.313V281H338.662V286.967L344.494 281H347.518L341.065 287.534L347.734 294.5ZM359.857 281H362.206V294.5H359.857V292.178C358.687 293.96 356.986 294.851 354.754 294.851C352.864 294.851 351.253 294.167 349.921 292.799C348.589 291.413 347.923 289.73 347.923 287.75C347.923 285.77 348.589 284.096 349.921 282.728C351.253 281.342 352.864 280.649 354.754 280.649C356.986 280.649 358.687 281.54 359.857 283.322V281ZM355.051 292.583C356.419 292.583 357.562 292.124 358.48 291.206C359.398 290.27 359.857 289.118 359.857 287.75C359.857 286.382 359.398 285.239 358.48 284.321C357.562 283.385 356.419 282.917 355.051 282.917C353.701 282.917 352.567 283.385 351.649 284.321C350.731 285.239 350.272 286.382 350.272 287.75C350.272 289.118 350.731 290.27 351.649 291.206C352.567 292.124 353.701 292.583 355.051 292.583ZM235.583 313H237.473V326.5H235.151V317.023L227.672 326.5H225.782V313H228.104V322.477L235.583 313ZM250.391 313H252.74V326.5H250.391V320.857H243.398V326.5H241.049V313H243.398V318.616H250.391V313ZM267.925 324.259H269.788V330.118H267.466V326.5H257.341V330.118H255.019V324.259H256.666C257.53 323.071 257.962 321.406 257.962 319.264V313H267.925V324.259ZM259.339 324.259H265.603V315.187H260.284V319.264C260.284 321.28 259.969 322.945 259.339 324.259ZM282.121 313H284.011V326.5H281.689V317.023L274.21 326.5H272.32V313H274.642V322.477L282.121 313ZM296.578 319.561C297.964 320.137 298.657 321.181 298.657 322.693C298.657 323.809 298.279 324.727 297.523 325.447C296.785 326.149 295.723 326.5 294.337 326.5H287.587V313H293.797C295.147 313 296.191 313.342 296.929 314.026C297.667 314.692 298.036 315.574 298.036 316.672C298.036 317.968 297.55 318.931 296.578 319.561ZM293.689 315.106H289.882V318.643H293.689C295.057 318.643 295.741 318.04 295.741 316.834C295.741 315.682 295.057 315.106 293.689 315.106ZM294.202 324.367C294.886 324.367 295.408 324.205 295.768 323.881C296.146 323.557 296.335 323.098 296.335 322.504C296.335 321.946 296.146 321.514 295.768 321.208C295.408 320.884 294.886 320.722 294.202 320.722H289.882V324.367H294.202ZM310.993 313H312.883V326.5H310.561V317.023L303.082 326.5H301.192V313H303.514V322.477L310.993 313ZM328.069 324.259H329.932V330.118H327.61V326.5H317.485V330.118H315.163V324.259H316.81C317.674 323.071 318.106 321.406 318.106 319.264V313H328.069V324.259ZM319.483 324.259H325.747V315.187H320.428V319.264C320.428 321.28 320.113 322.945 319.483 324.259ZM341.359 313H343.87L338.362 327.337C337.786 328.867 336.976 330.028 335.932 330.82C334.888 331.63 333.7 331.99 332.368 331.9V329.713C334.024 329.839 335.239 328.939 336.013 327.013L336.229 326.527L330.37 313H332.854L337.471 323.584L341.359 313ZM356.482 313H358.831V326.5H356.482V324.178C355.312 325.96 353.611 326.851 351.379 326.851C349.489 326.851 347.878 326.167 346.546 324.799C345.214 323.413 344.548 321.73 344.548 319.75C344.548 317.77 345.214 316.096 346.546 314.728C347.878 313.342 349.489 312.649 351.379 312.649C353.611 312.649 355.312 313.54 356.482 315.322V313ZM351.676 324.583C353.044 324.583 354.187 324.124 355.105 323.206C356.023 322.27 356.482 321.118 356.482 319.75C356.482 318.382 356.023 317.239 355.105 316.321C354.187 315.385 353.044 314.917 351.676 314.917C350.326 314.917 349.192 315.385 348.274 316.321C347.356 317.239 346.897 318.382 346.897 319.75C346.897 321.118 347.356 322.27 348.274 323.206C349.192 324.124 350.326 324.583 351.676 324.583ZM373.649 313V326.5H371.3V315.268H365.981V320.776C365.981 322.99 365.531 324.538 364.631 325.42C363.749 326.284 362.498 326.644 360.878 326.5V324.286C361.796 324.412 362.48 324.214 362.93 323.692C363.398 323.152 363.632 322.162 363.632 320.722V313H373.649ZM382.906 317.86C384.256 317.86 385.372 318.265 386.254 319.075C387.154 319.867 387.604 320.902 387.604 322.18C387.604 323.458 387.154 324.502 386.254 325.312C385.372 326.104 384.256 326.5 382.906 326.5H377.209V313H379.558V317.86H382.906ZM382.906 324.313C383.572 324.313 384.13 324.124 384.58 323.746C385.048 323.35 385.282 322.828 385.282 322.18C385.282 321.532 385.048 321.01 384.58 320.614C384.13 320.218 383.572 320.02 382.906 320.02H379.558V324.313H382.906ZM399.471 313H401.82V326.5H399.471V320.857H392.478V326.5H390.129V313H392.478V318.616H399.471V313ZM416.789 324.799C415.403 326.167 413.72 326.851 411.74 326.851C409.76 326.851 408.077 326.167 406.691 324.799C405.323 323.431 404.639 321.748 404.639 319.75C404.639 317.752 405.323 316.069 406.691 314.701C408.077 313.333 409.76 312.649 411.74 312.649C413.72 312.649 415.403 313.333 416.789 314.701C418.175 316.069 418.868 317.752 418.868 319.75C418.868 321.748 418.175 323.431 416.789 324.799ZM411.74 324.556C413.09 324.556 414.224 324.097 415.142 323.179C416.06 322.261 416.519 321.118 416.519 319.75C416.519 318.382 416.06 317.239 415.142 316.321C414.224 315.403 413.09 314.944 411.74 314.944C410.408 314.944 409.283 315.403 408.365 316.321C407.447 317.239 406.988 318.382 406.988 319.75C406.988 321.118 407.447 322.261 408.365 323.179C409.283 324.097 410.408 324.556 411.74 324.556ZM430.493 313V315.268H423.986V326.5H421.637V313H430.493ZM443.42 324.799C442.034 326.167 440.351 326.851 438.371 326.851C436.391 326.851 434.708 326.167 433.322 324.799C431.954 323.431 431.27 321.748 431.27 319.75C431.27 317.752 431.954 316.069 433.322 314.701C434.708 313.333 436.391 312.649 438.371 312.649C440.351 312.649 442.034 313.333 443.42 314.701C444.806 316.069 445.499 317.752 445.499 319.75C445.499 321.748 444.806 323.431 443.42 324.799ZM438.371 324.556C439.721 324.556 440.855 324.097 441.773 323.179C442.691 322.261 443.15 321.118 443.15 319.75C443.15 318.382 442.691 317.239 441.773 316.321C440.855 315.403 439.721 314.944 438.371 314.944C437.039 314.944 435.914 315.403 434.996 316.321C434.078 317.239 433.619 318.382 433.619 319.75C433.619 321.118 434.078 322.261 434.996 323.179C435.914 324.097 437.039 324.556 438.371 324.556ZM237.473 345V358.5H235.124V347.241H228.131V358.5H225.782V345H237.473ZM252.308 345V358.5H249.959V347.268H244.64V352.776C244.64 354.99 244.19 356.538 243.29 357.42C242.408 358.284 241.157 358.644 239.537 358.5V356.286C240.455 356.412 241.139 356.214 241.589 355.692C242.057 355.152 242.291 354.162 242.291 352.722V345H252.308ZM267.045 345H269.394V358.5H267.045V356.178C265.875 357.96 264.174 358.851 261.942 358.851C260.052 358.851 258.441 358.167 257.109 356.799C255.777 355.413 255.111 353.73 255.111 351.75C255.111 349.77 255.777 348.096 257.109 346.728C258.441 345.342 260.052 344.649 261.942 344.649C264.174 344.649 265.875 345.54 267.045 347.322V345ZM262.239 356.583C263.607 356.583 264.75 356.124 265.668 355.206C266.586 354.27 267.045 353.118 267.045 351.75C267.045 350.382 266.586 349.239 265.668 348.321C264.75 347.385 263.607 346.917 262.239 346.917C260.889 346.917 259.755 347.385 258.837 348.321C257.919 349.239 257.46 350.382 257.46 351.75C257.46 353.118 257.919 354.27 258.837 355.206C259.755 356.124 260.889 356.583 262.239 356.583ZM282.295 345H284.644V358.5H282.295V352.857H275.302V358.5H272.953V345H275.302V350.616H282.295V345ZM299.398 345H301.747V358.5H299.398V356.178C298.228 357.96 296.527 358.851 294.295 358.851C292.405 358.851 290.794 358.167 289.462 356.799C288.13 355.413 287.464 353.73 287.464 351.75C287.464 349.77 288.13 348.096 289.462 346.728C290.794 345.342 292.405 344.649 294.295 344.649C296.527 344.649 298.228 345.54 299.398 347.322V345ZM294.592 356.583C295.96 356.583 297.103 356.124 298.021 355.206C298.939 354.27 299.398 353.118 299.398 351.75C299.398 350.382 298.939 349.239 298.021 348.321C297.103 347.385 295.96 346.917 294.592 346.917C293.242 346.917 292.108 347.385 291.19 348.321C290.272 349.239 289.812 350.382 289.812 351.75C289.812 353.118 290.272 354.27 291.19 355.206C292.108 356.124 293.242 356.583 294.592 356.583ZM323.233 345H325.582V358.5H323.233V356.178C322.063 357.96 320.362 358.851 318.13 358.851C316.24 358.851 314.629 358.167 313.297 356.799C311.965 355.413 311.299 353.73 311.299 351.75C311.299 349.77 311.965 348.096 313.297 346.728C314.629 345.342 316.24 344.649 318.13 344.649C320.362 344.649 322.063 345.54 323.233 347.322V345ZM318.427 356.583C319.795 356.583 320.938 356.124 321.856 355.206C322.774 354.27 323.233 353.118 323.233 351.75C323.233 350.382 322.774 349.239 321.856 348.321C320.938 347.385 319.795 346.917 318.427 346.917C317.077 346.917 315.943 347.385 315.025 348.321C314.107 349.239 313.648 350.382 313.648 351.75C313.648 353.118 314.107 354.27 315.025 355.206C315.943 356.124 317.077 356.583 318.427 356.583ZM340.751 356.259H342.614V362.118H340.292V358.5H330.167V362.118H327.845V356.259H329.492C330.356 355.071 330.788 353.406 330.788 351.264V345H340.751V356.259ZM332.165 356.259H338.429V347.187H333.11V351.264C333.11 353.28 332.795 354.945 332.165 356.259ZM355.797 345H358.146V358.5H355.797V356.178C354.627 357.96 352.926 358.851 350.694 358.851C348.804 358.851 347.193 358.167 345.861 356.799C344.529 355.413 343.863 353.73 343.863 351.75C343.863 349.77 344.529 348.096 345.861 346.728C347.193 345.342 348.804 344.649 350.694 344.649C352.926 344.649 354.627 345.54 355.797 347.322V345ZM350.991 356.583C352.359 356.583 353.502 356.124 354.42 355.206C355.338 354.27 355.797 353.118 355.797 351.75C355.797 350.382 355.338 349.239 354.42 348.321C353.502 347.385 352.359 346.917 350.991 346.917C349.641 346.917 348.507 347.385 347.589 348.321C346.671 349.239 346.212 350.382 346.212 351.75C346.212 353.118 346.671 354.27 347.589 355.206C348.507 356.124 349.641 356.583 350.991 356.583ZM373.396 345V358.5H371.047V347.241H364.054V358.5H361.705V345H373.396ZM387.015 345V347.268H382.425V358.5H380.076V347.268H375.459V345H387.015ZM399.725 345H402.074V358.5H399.725V356.178C398.555 357.96 396.854 358.851 394.622 358.851C392.732 358.851 391.121 358.167 389.789 356.799C388.457 355.413 387.791 353.73 387.791 351.75C387.791 349.77 388.457 348.096 389.789 346.728C391.121 345.342 392.732 344.649 394.622 344.649C396.854 344.649 398.555 345.54 399.725 347.322V345ZM394.919 356.583C396.287 356.583 397.43 356.124 398.348 355.206C399.266 354.27 399.725 353.118 399.725 351.75C399.725 350.382 399.266 349.239 398.348 348.321C397.43 347.385 396.287 346.917 394.919 346.917C393.569 346.917 392.435 347.385 391.517 348.321C390.599 349.239 390.14 350.382 390.14 351.75C390.14 353.118 390.599 354.27 391.517 355.206C392.435 356.124 393.569 356.583 394.919 356.583ZM416.973 356.259H419.187V362.118H416.865V358.5H405.633V345H407.982V356.259H414.624V345H416.973V356.259ZM431.491 345H433.381V358.5H431.059V349.023L423.58 358.5H421.69V345H424.012V354.477L431.491 345ZM446.758 345H448.648V358.5H446.326V349.023L438.847 358.5H436.957V345H439.279V354.477L446.758 345Z" fill="#667085"/>
<rect x="208" y="123" width="351" height="103.5" rx="36" fill="white"/>
<path d="M251.4 182.166L248.5 204L262.265 195.741C262.714 195.472 262.939 195.337 263.178 195.284C263.39 195.238 263.61 195.238 263.822 195.284C264.061 195.337 264.286 195.472 264.735 195.741L278.5 204L275.603 182.164M284.5 165C284.5 176.598 275.098 186 263.5 186C251.902 186 242.5 176.598 242.5 165C242.5 153.402 251.902 144 263.5 144C275.098 144 284.5 153.402 284.5 165Z" stroke="#0450F2" stroke-width="6" stroke-linecap="round" stroke-linejoin="round"/>
<path d="M329.739 160.989C327.849 162.897 325.536 163.851 322.8 163.851C320.064 163.851 317.751 162.897 315.861 160.989C313.971 159.081 313.026 156.768 313.026 154.05C313.026 151.314 313.971 149.001 315.861 147.111C317.751 145.203 320.064 144.249 322.8 144.249C325.536 144.249 327.849 145.203 329.739 147.111C331.647 149.001 332.601 151.314 332.601 154.05C332.601 156.768 331.647 159.081 329.739 160.989ZM317.589 159.288C318.993 160.692 320.73 161.394 322.8 161.394C324.87 161.394 326.598 160.692 327.984 159.288C329.388 157.866 330.09 156.12 330.09 154.05C330.09 151.962 329.388 150.216 327.984 148.812C326.598 147.39 324.87 146.679 322.8 146.679C320.73 146.679 318.993 147.39 317.589 148.812C316.203 150.216 315.51 151.962 315.51 154.05C315.51 156.12 316.203 157.866 317.589 159.288ZM345.421 150V152.268H340.831V163.5H338.482V152.268H333.865V150H345.421ZM353.297 163.851C351.263 163.851 349.571 163.176 348.221 161.826C346.871 160.458 346.196 158.766 346.196 156.75C346.196 154.734 346.871 153.051 348.221 151.701C349.571 150.333 351.263 149.649 353.297 149.649C354.629 149.649 355.826 149.973 356.888 150.621C357.95 151.251 358.742 152.106 359.264 153.186L357.293 154.32C356.951 153.6 356.42 153.024 355.7 152.592C354.998 152.16 354.197 151.944 353.297 151.944C351.947 151.944 350.813 152.403 349.895 153.321C348.995 154.239 348.545 155.382 348.545 156.75C348.545 158.1 348.995 159.234 349.895 160.152C350.813 161.07 351.947 161.529 353.297 161.529C354.197 161.529 355.007 161.322 355.727 160.908C356.447 160.476 356.996 159.9 357.374 159.18L359.372 160.341C358.796 161.403 357.968 162.258 356.888 162.906C355.808 163.536 354.611 163.851 353.297 163.851ZM372.687 150V163.5H370.338V152.268H365.019V157.776C365.019 159.99 364.569 161.538 363.669 162.42C362.787 163.284 361.536 163.644 359.916 163.5V161.286C360.834 161.412 361.518 161.214 361.968 160.692C362.436 160.152 362.67 159.162 362.67 157.722V150H372.687ZM377.893 157.83C378.127 159.036 378.676 159.972 379.54 160.638C380.422 161.304 381.502 161.637 382.78 161.637C384.562 161.637 385.858 160.98 386.668 159.666L388.666 160.8C387.352 162.834 385.372 163.851 382.726 163.851C380.584 163.851 378.838 163.185 377.488 161.853C376.156 160.503 375.49 158.802 375.49 156.75C375.49 154.716 376.147 153.024 377.461 151.674C378.775 150.324 380.476 149.649 382.564 149.649C384.544 149.649 386.155 150.351 387.397 151.755C388.657 153.141 389.287 154.815 389.287 156.777C389.287 157.119 389.26 157.47 389.206 157.83H377.893ZM382.564 151.863C381.304 151.863 380.26 152.223 379.432 152.943C378.604 153.645 378.091 154.59 377.893 155.778H386.911C386.713 154.5 386.209 153.528 385.399 152.862C384.589 152.196 383.644 151.863 382.564 151.863ZM407.748 163.5H404.994L399.945 157.101V163.5H397.623V157.101L392.574 163.5H389.847L395.49 156.534L390.117 150H392.844L397.623 155.967V150H399.945V155.967L404.724 150H407.478L402.078 156.534L407.748 163.5ZM419.797 150H421.687V163.5H419.365V154.023L411.886 163.5H409.996V150H412.318V159.477L419.797 150ZM434.253 156.561C435.639 157.137 436.332 158.181 436.332 159.693C436.332 160.809 435.954 161.727 435.198 162.447C434.46 163.149 433.398 163.5 432.012 163.5H425.262V150H431.472C432.822 150 433.866 150.342 434.604 151.026C435.342 151.692 435.711 152.574 435.711 153.672C435.711 154.968 435.225 155.931 434.253 156.561ZM431.364 152.106H427.557V155.643H431.364C432.732 155.643 433.416 155.04 433.416 153.834C433.416 152.682 432.732 152.106 431.364 152.106ZM431.877 161.367C432.561 161.367 433.083 161.205 433.443 160.881C433.821 160.557 434.01 160.098 434.01 159.504C434.01 158.946 433.821 158.514 433.443 158.208C433.083 157.884 432.561 157.722 431.877 157.722H427.557V161.367H431.877ZM450.046 150H452.395V163.5H450.046V161.178C448.876 162.96 447.175 163.851 444.943 163.851C443.053 163.851 441.442 163.167 440.11 161.799C438.778 160.413 438.112 158.73 438.112 156.75C438.112 154.77 438.778 153.096 440.11 151.728C441.442 150.342 443.053 149.649 444.943 149.649C447.175 149.649 448.876 150.54 450.046 152.322V150ZM445.24 161.583C446.608 161.583 447.751 161.124 448.669 160.206C449.587 159.27 450.046 158.118 450.046 156.75C450.046 155.382 449.587 154.239 448.669 153.321C447.751 152.385 446.608 151.917 445.24 151.917C443.89 151.917 442.756 152.385 441.838 153.321C440.92 154.239 440.461 155.382 440.461 156.75C440.461 158.118 440.92 159.27 441.838 160.206C442.756 161.124 443.89 161.583 445.24 161.583ZM465.296 150H467.645V163.5H465.296V157.857H458.303V163.5H455.954V150H458.303V155.616H465.296V150ZM481.021 150H482.911V163.5H480.589V154.023L473.11 163.5H471.22V150H473.542V159.477L481.021 150ZM488.134 157.83C488.368 159.036 488.917 159.972 489.781 160.638C490.663 161.304 491.743 161.637 493.021 161.637C494.803 161.637 496.099 160.98 496.909 159.666L498.907 160.8C497.593 162.834 495.613 163.851 492.967 163.851C490.825 163.851 489.079 163.185 487.729 161.853C486.397 160.503 485.731 158.802 485.731 156.75C485.731 154.716 486.388 153.024 487.702 151.674C489.016 150.324 490.717 149.649 492.805 149.649C494.785 149.649 496.396 150.351 497.638 151.755C498.898 153.141 499.528 154.815 499.528 156.777C499.528 157.119 499.501 157.47 499.447 157.83H488.134ZM492.805 151.863C491.545 151.863 490.501 152.223 489.673 152.943C488.845 153.645 488.332 154.59 488.134 155.778H497.152C496.954 154.5 496.45 153.528 495.64 152.862C494.83 152.196 493.885 151.863 492.805 151.863ZM321.234 181.649C323.124 181.649 324.735 182.342 326.067 183.728C327.399 185.096 328.065 186.77 328.065 188.75C328.065 190.73 327.399 192.413 326.067 193.799C324.735 195.167 323.124 195.851 321.234 195.851C319.002 195.851 317.301 194.96 316.131 193.178V200.9H313.782V182H316.131V184.322C317.301 182.54 319.002 181.649 321.234 181.649ZM320.937 193.583C322.287 193.583 323.421 193.124 324.339 192.206C325.257 191.27 325.716 190.118 325.716 188.75C325.716 187.382 325.257 186.239 324.339 185.321C323.421 184.385 322.287 183.917 320.937 183.917C319.569 183.917 318.426 184.385 317.508 185.321C316.59 186.239 316.131 187.382 316.131 188.75C316.131 190.118 316.59 191.27 317.508 192.206C318.426 193.124 319.569 193.583 320.937 193.583ZM332.515 189.83C332.749 191.036 333.298 191.972 334.162 192.638C335.044 193.304 336.124 193.637 337.402 193.637C339.184 193.637 340.48 192.98 341.29 191.666L343.288 192.8C341.974 194.834 339.994 195.851 337.348 195.851C335.206 195.851 333.46 195.185 332.11 193.853C330.778 192.503 330.112 190.802 330.112 188.75C330.112 186.716 330.769 185.024 332.083 183.674C333.397 182.324 335.098 181.649 337.186 181.649C339.166 181.649 340.777 182.351 342.019 183.755C343.279 185.141 343.909 186.815 343.909 188.777C343.909 189.119 343.882 189.47 343.828 189.83H332.515ZM337.186 183.863C335.926 183.863 334.882 184.223 334.054 184.943C333.226 185.645 332.713 186.59 332.515 187.778H341.533C341.335 186.5 340.831 185.528 340.021 184.862C339.211 184.196 338.266 183.863 337.186 183.863ZM353.609 188.588C355.103 189.2 355.85 190.271 355.85 191.801C355.85 192.935 355.4 193.898 354.5 194.69C353.6 195.464 352.322 195.851 350.666 195.851C347.966 195.851 346.157 194.771 345.239 192.611L347.21 191.45C347.732 192.926 348.893 193.664 350.693 193.664C351.593 193.664 352.286 193.475 352.772 193.097C353.276 192.701 353.528 192.197 353.528 191.585C353.528 191.045 353.321 190.604 352.907 190.262C352.511 189.92 351.971 189.749 351.287 189.749H349.316V187.616H350.774C351.458 187.616 351.989 187.454 352.367 187.13C352.745 186.788 352.934 186.329 352.934 185.753C352.934 185.177 352.709 184.709 352.259 184.349C351.827 183.989 351.224 183.809 350.45 183.809C348.938 183.809 347.912 184.448 347.372 185.726L345.455 184.619C346.409 182.639 348.074 181.649 350.45 181.649C351.926 181.649 353.087 182.027 353.933 182.783C354.797 183.539 355.229 184.466 355.229 185.564C355.229 186.932 354.689 187.94 353.609 188.588ZM367.291 182H369.802L364.294 196.337C363.718 197.867 362.908 199.028 361.864 199.82C360.82 200.63 359.632 200.99 358.3 200.9V198.713C359.956 198.839 361.171 197.939 361.945 196.013L362.161 195.527L356.302 182H358.786L363.403 192.584L367.291 182ZM382.179 182V195.5H379.83V184.268H374.511V189.776C374.511 191.99 374.061 193.538 373.161 194.42C372.279 195.284 371.028 195.644 369.408 195.5V193.286C370.326 193.412 371.01 193.214 371.46 192.692C371.928 192.152 372.162 191.162 372.162 189.722V182H382.179ZM391.435 186.86C392.785 186.86 393.901 187.265 394.783 188.075C395.683 188.867 396.133 189.902 396.133 191.18C396.133 192.458 395.683 193.502 394.783 194.312C393.901 195.104 392.785 195.5 391.435 195.5H385.738V182H388.087V186.86H391.435ZM391.435 193.313C392.101 193.313 392.659 193.124 393.109 192.746C393.577 192.35 393.811 191.828 393.811 191.18C393.811 190.532 393.577 190.01 393.109 189.614C392.659 189.218 392.101 189.02 391.435 189.02H388.087V193.313H391.435ZM407.146 182V184.268H402.556V195.5H400.207V184.268H395.59V182H407.146ZM419.856 182H422.205V195.5H419.856V193.178C418.686 194.96 416.985 195.851 414.753 195.851C412.863 195.851 411.252 195.167 409.92 193.799C408.588 192.413 407.922 190.73 407.922 188.75C407.922 186.77 408.588 185.096 409.92 183.728C411.252 182.342 412.863 181.649 414.753 181.649C416.985 181.649 418.686 182.54 419.856 184.322V182ZM415.05 193.583C416.418 193.583 417.561 193.124 418.479 192.206C419.397 191.27 419.856 190.118 419.856 188.75C419.856 187.382 419.397 186.239 418.479 185.321C417.561 184.385 416.418 183.917 415.05 183.917C413.7 183.917 412.566 184.385 411.648 185.321C410.73 186.239 410.271 187.382 410.271 188.75C410.271 190.118 410.73 191.27 411.648 192.206C412.566 193.124 413.7 193.583 415.05 193.583ZM435.807 182V184.268H431.217V195.5H428.868V184.268H424.251V182H435.807ZM448.733 193.799C447.347 195.167 445.664 195.851 443.684 195.851C441.704 195.851 440.021 195.167 438.635 193.799C437.267 192.431 436.583 190.748 436.583 188.75C436.583 186.752 437.267 185.069 438.635 183.701C440.021 182.333 441.704 181.649 443.684 181.649C445.664 181.649 447.347 182.333 448.733 183.701C450.119 185.069 450.812 186.752 450.812 188.75C450.812 190.748 450.119 192.431 448.733 193.799ZM443.684 193.556C445.034 193.556 446.168 193.097 447.086 192.179C448.004 191.261 448.463 190.118 448.463 188.75C448.463 187.382 448.004 186.239 447.086 185.321C446.168 184.403 445.034 183.944 443.684 183.944C442.352 183.944 441.227 184.403 440.309 185.321C439.391 186.239 438.932 187.382 438.932 188.75C438.932 190.118 439.391 191.261 440.309 192.179C441.227 193.097 442.352 193.556 443.684 193.556ZM462.572 188.561C463.958 189.137 464.651 190.181 464.651 191.693C464.651 192.809 464.273 193.727 463.517 194.447C462.779 195.149 461.717 195.5 460.331 195.5H453.581V182H459.791C461.141 182 462.185 182.342 462.923 183.026C463.661 183.692 464.03 184.574 464.03 185.672C464.03 186.968 463.544 187.931 462.572 188.561ZM459.683 184.106H455.876V187.643H459.683C461.051 187.643 461.735 187.04 461.735 185.834C461.735 184.682 461.051 184.106 459.683 184.106ZM460.196 193.367C460.88 193.367 461.402 193.205 461.762 192.881C462.14 192.557 462.329 192.098 462.329 191.504C462.329 190.946 462.14 190.514 461.762 190.208C461.402 189.884 460.88 189.722 460.196 189.722H455.876V193.367H460.196Z" fill="#667085"/>
<rect x="124" width="351" height="103.5" rx="36" fill="white"/>
<path d="M147.999 42H204.999M170.499 24L164.499 42L176.499 76.5L188.499 42L182.499 24M178.342 75.7875L205.218 43.5364C205.674 42.9899 205.901 42.7166 205.989 42.4115C206.065 42.1425 206.065 41.8575 205.989 41.5885C205.901 41.2834 205.674 41.0101 205.218 40.4636L192.218 24.8636C191.954 24.5461 191.821 24.3874 191.659 24.2733C191.516 24.1722 191.355 24.0971 191.186 24.0515C190.994 24 190.788 24 190.375 24H162.623C162.21 24 162.003 24 161.811 24.0515C161.642 24.0971 161.482 24.1722 161.338 24.2733C161.176 24.3874 161.043 24.5461 160.779 24.8636L147.779 40.4636C147.323 41.0101 147.096 41.2834 147.009 41.5885C146.932 41.8575 146.932 42.1425 147.009 42.4115C147.096 42.7166 147.323 42.9899 147.779 43.5364L174.655 75.7875C175.288 76.5473 175.605 76.9272 175.984 77.0658C176.316 77.1873 176.681 77.1873 177.014 77.0658C177.393 76.9272 177.709 76.5473 178.342 75.7875Z" stroke="#0450F2" stroke-width="6" stroke-linecap="round" stroke-linejoin="round"/>
<path d="M238.408 44.851C235.546 44.851 233.179 43.906 231.307 42.016C229.453 40.126 228.526 37.804 228.526 35.05C228.526 32.296 229.453 29.974 231.307 28.084C233.179 26.194 235.546 25.249 238.408 25.249C240.136 25.249 241.72 25.663 243.16 26.491C244.618 27.319 245.752 28.435 246.562 29.839L244.375 31.108C243.835 30.064 243.025 29.236 241.945 28.624C240.883 27.994 239.704 27.679 238.408 27.679C236.23 27.679 234.448 28.381 233.062 29.785C231.694 31.189 231.01 32.944 231.01 35.05C231.01 37.138 231.694 38.884 233.062 40.288C234.448 41.692 236.23 42.394 238.408 42.394C239.704 42.394 240.883 42.088 241.945 41.476C243.025 40.846 243.835 40.018 244.375 38.992L246.562 40.234C245.77 41.638 244.645 42.763 243.187 43.609C241.729 44.437 240.136 44.851 238.408 44.851ZM259.043 31H260.933V44.5H258.611V35.023L251.132 44.5H249.242V31H251.564V40.477L259.043 31ZM270.854 44.851C268.82 44.851 267.128 44.176 265.778 42.826C264.428 41.458 263.753 39.766 263.753 37.75C263.753 35.734 264.428 34.051 265.778 32.701C267.128 31.333 268.82 30.649 270.854 30.649C272.186 30.649 273.383 30.973 274.445 31.621C275.507 32.251 276.299 33.106 276.821 34.186L274.85 35.32C274.508 34.6 273.977 34.024 273.257 33.592C272.555 33.16 271.754 32.944 270.854 32.944C269.504 32.944 268.37 33.403 267.452 34.321C266.552 35.239 266.102 36.382 266.102 37.75C266.102 39.1 266.552 40.234 267.452 41.152C268.37 42.07 269.504 42.529 270.854 42.529C271.754 42.529 272.564 42.322 273.284 41.908C274.004 41.476 274.553 40.9 274.931 40.18L276.929 41.341C276.353 42.403 275.525 43.258 274.445 43.906C273.365 44.536 272.168 44.851 270.854 44.851ZM289.081 31V33.268H284.491V44.5H282.142V33.268H277.525V31H289.081ZM292.259 38.83C292.493 40.036 293.042 40.972 293.906 41.638C294.788 42.304 295.868 42.637 297.146 42.637C298.928 42.637 300.224 41.98 301.034 40.666L303.032 41.8C301.718 43.834 299.738 44.851 297.092 44.851C294.95 44.851 293.204 44.185 291.854 42.853C290.522 41.503 289.856 39.802 289.856 37.75C289.856 35.716 290.513 34.024 291.827 32.674C293.141 31.324 294.842 30.649 296.93 30.649C298.91 30.649 300.521 31.351 301.763 32.755C303.023 34.141 303.653 35.815 303.653 37.777C303.653 38.119 303.626 38.47 303.572 38.83H292.259ZM296.93 32.863C295.67 32.863 294.626 33.223 293.798 33.943C292.97 34.645 292.457 35.59 292.259 36.778H301.277C301.079 35.5 300.575 34.528 299.765 33.862C298.955 33.196 298.01 32.863 296.93 32.863ZM319.853 31V44.5H317.558V34.699L313.265 41.611H312.968L308.675 34.699V44.5H306.353V31H308.864L313.103 37.831L317.342 31H319.853ZM334.617 31H336.966V44.5H334.617V42.178C333.447 43.96 331.746 44.851 329.514 44.851C327.624 44.851 326.013 44.167 324.681 42.799C323.349 41.413 322.683 39.73 322.683 37.75C322.683 35.77 323.349 34.096 324.681 32.728C326.013 31.342 327.624 30.649 329.514 30.649C331.746 30.649 333.447 31.54 334.617 33.322V31ZM329.811 42.583C331.179 42.583 332.322 42.124 333.24 41.206C334.158 40.27 334.617 39.118 334.617 37.75C334.617 36.382 334.158 35.239 333.24 34.321C332.322 33.385 331.179 32.917 329.811 32.917C328.461 32.917 327.327 33.385 326.409 34.321C325.491 35.239 325.032 36.382 325.032 37.75C325.032 39.118 325.491 40.27 326.409 41.206C327.327 42.124 328.461 42.583 329.811 42.583ZM238.138 63V65.268H231.631V76.5H229.282V63H238.138ZM241.318 70.83C241.552 72.036 242.101 72.972 242.965 73.638C243.847 74.304 244.927 74.637 246.205 74.637C247.987 74.637 249.283 73.98 250.093 72.666L252.091 73.8C250.777 75.834 248.797 76.851 246.151 76.851C244.009 76.851 242.263 76.185 240.913 74.853C239.581 73.503 238.915 71.802 238.915 69.75C238.915 67.716 239.572 66.024 240.886 64.674C242.2 63.324 243.901 62.649 245.989 62.649C247.969 62.649 249.58 63.351 250.822 64.755C252.082 66.141 252.712 67.815 252.712 69.777C252.712 70.119 252.685 70.47 252.631 70.83H241.318ZM245.989 64.863C244.729 64.863 243.685 65.223 242.857 65.943C242.029 66.645 241.516 67.59 241.318 68.778H250.336C250.138 67.5 249.634 66.528 248.824 65.862C248.014 65.196 247.069 64.863 245.989 64.863ZM257.626 60.975V58.923H264.916V60.975H257.626ZM265.213 63H267.103V76.5H264.781V67.023L257.302 76.5H255.412V63H257.734V72.477L265.213 63ZM284.178 63V76.5H281.883V66.699L277.59 73.611H277.293L273 66.699V76.5H270.678V63H273.189L277.428 69.831L281.667 63H284.178ZM297.565 63H299.455V76.5H297.133V67.023L289.654 76.5H287.764V63H290.086V72.477L297.565 63ZM316.585 65.025C317.845 66.321 318.475 67.896 318.475 69.75C318.475 71.604 317.845 73.179 316.585 74.475C315.325 75.771 313.642 76.536 311.536 76.77V81.9H309.214V76.77C307.108 76.536 305.425 75.771 304.165 74.475C302.905 73.179 302.275 71.604 302.275 69.75C302.275 67.896 302.905 66.321 304.165 65.025C305.425 63.729 307.108 62.964 309.214 62.73V57.6H311.536V62.73C313.642 62.964 315.325 63.729 316.585 65.025ZM304.597 69.75C304.597 70.992 305.002 72.045 305.812 72.909C306.64 73.773 307.774 74.304 309.214 74.502V64.998C307.774 65.178 306.64 65.7 305.812 66.564C305.002 67.428 304.597 68.49 304.597 69.75ZM311.536 74.502C312.976 74.304 314.101 73.773 314.911 72.909C315.721 72.045 316.126 70.992 316.126 69.75C316.126 68.508 315.721 67.455 314.911 66.591C314.101 65.727 312.976 65.196 311.536 64.998V74.502ZM331.052 63H332.942V76.5H330.62V67.023L323.141 76.5H321.251V63H323.573V72.477L331.052 63ZM347.938 76.5H345.022L338.866 70.101V76.5H336.517V63H338.866V68.967L344.698 63H347.722L341.269 69.534L347.938 76.5ZM360.062 63H362.411V76.5H360.062V74.178C358.892 75.96 357.191 76.851 354.959 76.851C353.069 76.851 351.458 76.167 350.126 74.799C348.794 73.413 348.128 71.73 348.128 69.75C348.128 67.77 348.794 66.096 350.126 64.728C351.458 63.342 353.069 62.649 354.959 62.649C357.191 62.649 358.892 63.54 360.062 65.322V63ZM355.256 74.583C356.624 74.583 357.767 74.124 358.685 73.206C359.603 72.27 360.062 71.118 360.062 69.75C360.062 68.382 359.603 67.239 358.685 66.321C357.767 65.385 356.624 64.917 355.256 64.917C353.906 64.917 352.772 65.385 351.854 66.321C350.936 67.239 350.477 68.382 350.477 69.75C350.477 71.118 350.936 72.27 351.854 73.206C352.772 74.124 353.906 74.583 355.256 74.583ZM377.31 74.259H379.524V80.118H377.202V76.5H365.969V63H368.319V74.259H374.961V63H377.31V74.259ZM391.828 63H393.718V76.5H391.396V67.023L383.917 76.5H382.027V63H384.349V72.477L391.828 63ZM407.095 63H408.985V76.5H406.663V67.023L399.184 76.5H397.294V63H399.616V72.477L407.095 63Z" fill="#667085"/>
</svg>
