<svg width="100" height="100" viewBox="0 0 100 100" fill="none" xmlns="http://www.w3.org/2000/svg">
<mask id="mask0_204_762" style="mask-type:alpha" maskUnits="userSpaceOnUse" x="0" y="0" width="100" height="100">
<rect width="100" height="100" rx="20" fill="#E4E7EC"/>
</mask>
<g mask="url(#mask0_204_762)">
<path d="M61.3108 26.608C77.5001 15.9998 88.6748 45.018 100 54" stroke="#475467" stroke-width="2"/>
<path d="M14.8477 42.8604C14.8477 42.8604 38.7942 15.4219 51.3521 19.3859C63.91 23.3499 64.2485 25.9533 56.969 36.6676C49.6895 47.3819 14.8477 42.8604 14.8477 42.8604Z" fill="#344054"/>
<path d="M71.2868 32.8616C71.2868 32.8616 77.6422 34.3149 79.0436 32.4192C80.445 30.5235 80.22 30.1109 78.0382 29.3254C75.8565 28.54 71.2868 32.8616 71.2868 32.8616Z" fill="#344054"/>
<path d="M87.9041 35.0236C87.9041 35.0236 87.1654 40.2399 88.5506 41.3546C89.9358 42.4692 90.2143 42.2788 90.6681 40.4835C91.1218 38.6882 87.9041 35.0236 87.9041 35.0236Z" fill="#344054"/>
<path d="M13.3737 42.9907C50.2436 38.6105 62.4084 26.4638 62.4084 26.4638" stroke="#E4E7EC"/>
<path d="M20.746 44.8601C48 40.5 19.4999 27.9998 19.4999 27.9998" stroke="#E4E7EC"/>
<path d="M40.168 46.9237C67 26.4999 29 25 29 25" stroke="#E4E7EC"/>
</g>
</svg>
