<svg width="140" height="150" viewBox="0 0 140 150" fill="none" xmlns="http://www.w3.org/2000/svg">
<g filter="url(#filter0_dddd_268_1770)">
<rect x="6" y="2" width="128" height="128" rx="25.6" fill="#1570EF"/>
</g>
<mask id="mask0_268_1770" style="mask-type:alpha" maskUnits="userSpaceOnUse" x="6" y="2" width="128" height="128">
<rect x="6" y="2" width="128" height="128" rx="25.6" fill="#1570EF"/>
</mask>
<g mask="url(#mask0_268_1770)">
<path d="M84.4777 36.0583C105.2 22.4798 119.504 59.623 134 71.12" stroke="#475467" stroke-width="2.56"/>
<path d="M118.517 46.8299C118.517 46.8299 117.572 53.5067 119.345 54.9335C121.118 56.3603 121.474 56.1165 122.055 53.8185C122.636 51.5206 118.517 46.8299 118.517 46.8299Z" fill="#84CAFF"/>
<path d="M97.2469 44.0628C97.2469 44.0628 105.382 45.9229 107.176 43.4965C108.969 41.07 108.681 40.5418 105.889 39.5365C103.096 38.5311 97.2469 44.0628 97.2469 44.0628Z" fill="#84CAFF"/>
<path d="M25.0051 56.8609C25.0051 56.8609 55.6566 21.7396 71.7307 26.8135C87.8049 31.8875 88.2381 35.2198 78.9203 48.9341C69.6026 62.6484 25.0051 56.8609 25.0051 56.8609Z" fill="#EFF8FF"/>
<mask id="mask1_268_1770" style="mask-type:alpha" maskUnits="userSpaceOnUse" x="25" y="26" width="61" height="33">
<path d="M25.0051 56.8609C25.0051 56.8609 55.6566 21.7396 71.7307 26.8135C87.8049 31.8875 88.2381 35.2198 78.9203 48.9341C69.6026 62.6484 25.0051 56.8609 25.0051 56.8609Z" fill="#EFF8FF"/>
</mask>
<g mask="url(#mask1_268_1770)">
<path d="M23.1184 57.0279C70.3119 51.4213 85.8828 35.8735 85.8828 35.8735" stroke="#475467" stroke-width="1.28"/>
<path d="M32.5549 59.421C67.44 53.8401 30.9598 37.8399 30.9598 37.8399" stroke="#475467" stroke-width="1.28"/>
<path d="M57.415 62.0622C91.7599 35.9196 43.1199 33.9999 43.1199 33.9999" stroke="#475467" stroke-width="1.28"/>
</g>
</g>
<path d="M30.4198 74.9272V87.96H28.4598V76.6072H22.3253V87.96H20.3653V74.9272H30.4198ZM37.4866 88.1572C36.5236 88.1572 35.6942 87.9515 34.9984 87.54C34.3069 87.1242 33.7724 86.5409 33.3948 85.79C33.0215 85.0348 32.8348 84.1503 32.8348 83.1363C32.8348 82.1351 33.0215 81.2527 33.3948 80.4891C33.7724 79.7254 34.2984 79.1294 34.973 78.7009C35.6518 78.2724 36.4451 78.0581 37.353 78.0581C37.9045 78.0581 38.439 78.1494 38.9566 78.3318C39.4742 78.5142 39.9387 78.8006 40.3503 79.1909C40.7618 79.5812 41.0863 80.0881 41.3239 80.7118C41.5615 81.3312 41.6803 82.0842 41.6803 82.9709V83.6454H33.9103V82.22H39.8157C39.8157 81.7194 39.7139 81.276 39.5103 80.89C39.3066 80.4997 39.0203 80.1921 38.6512 79.9672C38.2863 79.7424 37.8578 79.63 37.3657 79.63C36.8312 79.63 36.3645 79.7615 35.9657 80.0245C35.5712 80.2833 35.2657 80.6227 35.0493 81.0427C34.8372 81.4584 34.7312 81.9103 34.7312 82.3981V83.5118C34.7312 84.1651 34.8457 84.7209 35.0748 85.1791C35.3081 85.6372 35.6327 85.9872 36.0484 86.2291C36.4642 86.4666 36.95 86.5854 37.5057 86.5854C37.8663 86.5854 38.1951 86.5345 38.4921 86.4327C38.789 86.3266 39.0457 86.1697 39.2621 85.9618C39.4784 85.7539 39.6439 85.4972 39.7584 85.1918L41.5594 85.5163C41.4151 86.0466 41.1563 86.5112 40.783 86.91C40.4139 87.3045 39.9494 87.6121 39.3894 87.8327C38.8336 88.0491 38.1993 88.1572 37.4866 88.1572ZM43.7914 91.6254V78.1854H45.6496V79.77H45.8087C45.919 79.5663 46.0781 79.3309 46.2859 79.0636C46.4938 78.7963 46.7823 78.563 47.1514 78.3636C47.5205 78.16 48.0084 78.0581 48.615 78.0581C49.4041 78.0581 50.1084 78.2575 50.7278 78.6563C51.3472 79.0551 51.8329 79.63 52.185 80.3809C52.5414 81.1318 52.7196 82.0354 52.7196 83.0918C52.7196 84.1481 52.5435 85.0539 52.1914 85.8091C51.8393 86.56 51.3556 87.1391 50.7405 87.5463C50.1253 87.9494 49.4232 88.1509 48.6341 88.1509C48.0402 88.1509 47.5544 88.0512 47.1769 87.8518C46.8035 87.6524 46.5108 87.4191 46.2987 87.1518C46.0865 86.8845 45.9232 86.6469 45.8087 86.4391H45.6941V91.6254H43.7914ZM45.6559 83.0727C45.6559 83.76 45.7556 84.3624 45.955 84.88C46.1544 85.3975 46.4429 85.8027 46.8205 86.0954C47.1981 86.3839 47.6605 86.5281 48.2078 86.5281C48.7762 86.5281 49.2514 86.3775 49.6332 86.0763C50.015 85.7709 50.3035 85.3572 50.4987 84.8354C50.6981 84.3136 50.7978 83.726 50.7978 83.0727C50.7978 82.4278 50.7002 81.8487 50.505 81.3354C50.3141 80.8221 50.0256 80.4169 49.6396 80.12C49.2578 79.823 48.7805 79.6745 48.2078 79.6745C47.6562 79.6745 47.1896 79.8166 46.8078 80.1009C46.4302 80.3851 46.1438 80.7818 45.9487 81.2909C45.7535 81.8 45.6559 82.3939 45.6559 83.0727ZM54.8514 87.96V78.1854H58.905C60.0081 78.1854 60.882 78.4209 61.5268 78.8918C62.1717 79.3584 62.4941 79.9927 62.4941 80.7945C62.4941 81.3672 62.3117 81.8212 61.9468 82.1563C61.582 82.4915 61.0984 82.7163 60.4959 82.8309C60.9329 82.8818 61.3338 83.0133 61.6987 83.2254C62.0635 83.4333 62.3562 83.7133 62.5768 84.0654C62.8017 84.4175 62.9141 84.8375 62.9141 85.3254C62.9141 85.843 62.7805 86.3012 62.5132 86.7C62.2459 87.0945 61.8578 87.4042 61.3487 87.6291C60.8438 87.8497 60.235 87.96 59.5223 87.96H54.8514ZM56.6396 86.3691H59.5223C59.9932 86.3691 60.3623 86.2566 60.6296 86.0318C60.8968 85.8069 61.0305 85.5015 61.0305 85.1154C61.0305 84.6615 60.8968 84.3051 60.6296 84.0463C60.3623 83.7833 59.9932 83.6518 59.5223 83.6518H56.6396V86.3691ZM56.6396 82.2581H58.9241C59.2805 82.2581 59.5859 82.2072 59.8405 82.1054C60.0993 82.0036 60.2965 81.8594 60.4323 81.6727C60.5723 81.4818 60.6423 81.2569 60.6423 80.9981C60.6423 80.6206 60.4875 80.3257 60.1778 80.1136C59.8681 79.9015 59.4438 79.7954 58.905 79.7954H56.6396V82.2581ZM66.4332 81.5454H69.2714C70.4678 81.5454 71.3884 81.8424 72.0332 82.4363C72.6781 83.0303 73.0005 83.796 73.0005 84.7336C73.0005 85.3445 72.8562 85.8939 72.5678 86.3818C72.2793 86.8697 71.8572 87.2557 71.3014 87.54C70.7456 87.82 70.069 87.96 69.2714 87.96H65.0014V78.1854H66.8659V86.3181H69.2714C69.8187 86.3181 70.2684 86.176 70.6205 85.8918C70.9726 85.6033 71.1487 85.2363 71.1487 84.7909C71.1487 84.32 70.9726 83.936 70.6205 83.6391C70.2684 83.3378 69.8187 83.1872 69.2714 83.1872H66.4332V81.5454ZM74.3878 87.96V78.1854H76.2905V87.96H74.3878ZM83.0566 88.1572C82.0936 88.1572 81.2642 87.9515 80.5684 87.54C79.8769 87.1242 79.3424 86.5409 78.9648 85.79C78.5915 85.0348 78.4048 84.1503 78.4048 83.1363C78.4048 82.1351 78.5915 81.2527 78.9648 80.4891C79.3424 79.7254 79.8684 79.1294 80.543 78.7009C81.2218 78.2724 82.0151 78.0581 82.923 78.0581C83.4745 78.0581 84.009 78.1494 84.5266 78.3318C85.0442 78.5142 85.5087 78.8006 85.9203 79.1909C86.3318 79.5812 86.6563 80.0881 86.8939 80.7118C87.1315 81.3312 87.2503 82.0842 87.2503 82.9709V83.6454H79.4803V82.22H85.3857C85.3857 81.7194 85.2839 81.276 85.0803 80.89C84.8766 80.4997 84.5903 80.1921 84.2212 79.9672C83.8563 79.7424 83.4278 79.63 82.9357 79.63C82.4012 79.63 81.9345 79.7615 81.5357 80.0245C81.1412 80.2833 80.8357 80.6227 80.6193 81.0427C80.4072 81.4584 80.3012 81.9103 80.3012 82.3981V83.5118C80.3012 84.1651 80.4157 84.7209 80.6448 85.1791C80.8781 85.6372 81.2027 85.9872 81.6184 86.2291C82.0342 86.4666 82.52 86.5854 83.0757 86.5854C83.4363 86.5854 83.7651 86.5345 84.0621 86.4327C84.359 86.3266 84.6157 86.1697 84.8321 85.9618C85.0484 85.7539 85.2139 85.4972 85.3284 85.1918L87.1293 85.5163C86.9851 86.0466 86.7263 86.5112 86.353 86.91C85.9839 87.3045 85.5193 87.6121 84.9593 87.8327C84.4036 88.0491 83.7693 88.1572 83.0566 88.1572ZM20.0789 109.96V100.185H28.0525V109.96H26.188V101.827H21.9307V109.96H20.0789ZM34.7137 110.157C33.7973 110.157 32.9976 109.947 32.3146 109.527C31.6315 109.107 31.1012 108.52 30.7237 107.765C30.3461 107.009 30.1573 106.127 30.1573 105.117C30.1573 104.103 30.3461 103.217 30.7237 102.457C31.1012 101.698 31.6315 101.108 32.3146 100.688C32.9976 100.268 33.7973 100.058 34.7137 100.058C35.63 100.058 36.4297 100.268 37.1128 100.688C37.7958 101.108 38.3261 101.698 38.7037 102.457C39.0812 103.217 39.27 104.103 39.27 105.117C39.27 106.127 39.0812 107.009 38.7037 107.765C38.3261 108.52 37.7958 109.107 37.1128 109.527C36.4297 109.947 35.63 110.157 34.7137 110.157ZM34.72 108.56C35.314 108.56 35.8061 108.403 36.1964 108.089C36.5867 107.775 36.8752 107.357 37.0619 106.835C37.2528 106.314 37.3482 105.739 37.3482 105.111C37.3482 104.487 37.2528 103.915 37.0619 103.393C36.8752 102.867 36.5867 102.445 36.1964 102.126C35.8061 101.808 35.314 101.649 34.72 101.649C34.1219 101.649 33.6255 101.808 33.2309 102.126C32.8406 102.445 32.55 102.867 32.3591 103.393C32.1725 103.915 32.0791 104.487 32.0791 105.111C32.0791 105.739 32.1725 106.314 32.3591 106.835C32.55 107.357 32.8406 107.775 33.2309 108.089C33.6255 108.403 34.1219 108.56 34.72 108.56ZM48.9348 96.5454L49.7239 97.7481C49.4312 98.0154 49.0981 98.2063 48.7248 98.3209C48.3557 98.4312 47.9293 98.5012 47.4457 98.5309C46.9621 98.5563 46.4084 98.5797 45.7848 98.6009C45.0806 98.6221 44.5015 98.7748 44.0475 99.0591C43.5936 99.3391 43.2436 99.7548 42.9975 100.306C42.7557 100.854 42.5987 101.541 42.5266 102.368H42.6475C42.9657 101.761 43.4069 101.308 43.9712 101.006C44.5397 100.705 45.1781 100.555 45.8866 100.555C46.6757 100.555 47.3778 100.735 47.993 101.095C48.6081 101.456 49.0918 101.984 49.4439 102.68C49.8003 103.371 49.9784 104.218 49.9784 105.219C49.9784 106.233 49.7918 107.109 49.4184 107.847C49.0493 108.585 48.5275 109.156 47.853 109.559C47.1827 109.958 46.3915 110.157 45.4793 110.157C44.5672 110.157 43.7718 109.951 43.093 109.54C42.4184 109.124 41.8945 108.509 41.5212 107.695C41.1521 106.88 40.9675 105.875 40.9675 104.678V103.711C40.9675 101.475 41.3663 99.793 42.1639 98.6645C42.9615 97.536 44.1536 96.9569 45.7403 96.9272C46.2536 96.9145 46.7118 96.9124 47.1148 96.9209C47.5178 96.9251 47.87 96.906 48.1712 96.8636C48.4766 96.8169 48.7312 96.7109 48.9348 96.5454ZM45.4857 108.56C46.016 108.56 46.4721 108.426 46.8539 108.159C47.24 107.888 47.5369 107.504 47.7448 107.007C47.9527 106.511 48.0566 105.925 48.0566 105.251C48.0566 104.589 47.9527 104.027 47.7448 103.565C47.5369 103.102 47.24 102.75 46.8539 102.508C46.4678 102.262 46.0054 102.139 45.4666 102.139C45.0678 102.139 44.7115 102.209 44.3975 102.349C44.0836 102.485 43.8142 102.686 43.5893 102.954C43.3687 103.221 43.1969 103.548 43.0739 103.934C42.9551 104.315 42.8915 104.755 42.883 105.251C42.883 106.261 43.1142 107.065 43.5766 107.663C44.0433 108.261 44.6797 108.56 45.4857 108.56ZM56.3166 110.157C55.3536 110.157 54.5242 109.951 53.8284 109.54C53.1369 109.124 52.6024 108.541 52.2248 107.79C51.8515 107.035 51.6648 106.15 51.6648 105.136C51.6648 104.135 51.8515 103.253 52.2248 102.489C52.6024 101.725 53.1284 101.129 53.803 100.701C54.4818 100.272 55.2751 100.058 56.183 100.058C56.7345 100.058 57.269 100.149 57.7866 100.332C58.3042 100.514 58.7687 100.801 59.1803 101.191C59.5918 101.581 59.9163 102.088 60.1539 102.712C60.3915 103.331 60.5103 104.084 60.5103 104.971V105.645H52.7403V104.22H58.6457C58.6457 103.719 58.5439 103.276 58.3403 102.89C58.1366 102.5 57.8503 102.192 57.4812 101.967C57.1163 101.742 56.6878 101.63 56.1957 101.63C55.6612 101.63 55.1945 101.761 54.7957 102.025C54.4012 102.283 54.0957 102.623 53.8794 103.043C53.6672 103.458 53.5612 103.91 53.5612 104.398V105.512C53.5612 106.165 53.6757 106.721 53.9048 107.179C54.1381 107.637 54.4627 107.987 54.8784 108.229C55.2942 108.467 55.78 108.585 56.3357 108.585C56.6963 108.585 57.0251 108.535 57.3221 108.433C57.619 108.327 57.8757 108.17 58.0921 107.962C58.3084 107.754 58.4739 107.497 58.5884 107.192L60.3894 107.516C60.2451 108.047 59.9863 108.511 59.613 108.91C59.2439 109.305 58.7794 109.612 58.2194 109.833C57.6636 110.049 57.0294 110.157 56.3166 110.157ZM68.8705 100.185V101.827H64.4987V109.96H62.6214V100.185H68.8705ZM72.7459 107.294L77.0541 100.185H79.1032V109.96H77.2387V102.845L72.9496 109.96H70.8814V100.185H72.7459V107.294Z" fill="white"/>
<defs>
<filter id="filter0_dddd_268_1770" x="0.88" y="0.72" width="138.24" height="148.48" filterUnits="userSpaceOnUse" color-interpolation-filters="sRGB">
<feFlood flood-opacity="0" result="BackgroundImageFix"/>
<feColorMatrix in="SourceAlpha" type="matrix" values="0 0 0 0 0 0 0 0 0 0 0 0 0 0 0 0 0 0 127 0" result="hardAlpha"/>
<feOffset dy="1.28"/>
<feGaussianBlur stdDeviation="1.28"/>
<feColorMatrix type="matrix" values="0 0 0 0 0.309804 0 0 0 0 0.309804 0 0 0 0 0.309804 0 0 0 0.1 0"/>
<feBlend mode="normal" in2="BackgroundImageFix" result="effect1_dropShadow_268_1770"/>
<feColorMatrix in="SourceAlpha" type="matrix" values="0 0 0 0 0 0 0 0 0 0 0 0 0 0 0 0 0 0 127 0" result="hardAlpha"/>
<feOffset dy="3.84"/>
<feGaussianBlur stdDeviation="1.92"/>
<feColorMatrix type="matrix" values="0 0 0 0 0.309804 0 0 0 0 0.309804 0 0 0 0 0.309804 0 0 0 0.09 0"/>
<feBlend mode="normal" in2="effect1_dropShadow_268_1770" result="effect2_dropShadow_268_1770"/>
<feColorMatrix in="SourceAlpha" type="matrix" values="0 0 0 0 0 0 0 0 0 0 0 0 0 0 0 0 0 0 127 0" result="hardAlpha"/>
<feOffset dy="7.68"/>
<feGaussianBlur stdDeviation="2.56"/>
<feColorMatrix type="matrix" values="0 0 0 0 0.309804 0 0 0 0 0.309804 0 0 0 0 0.309804 0 0 0 0.05 0"/>
<feBlend mode="normal" in2="effect2_dropShadow_268_1770" result="effect3_dropShadow_268_1770"/>
<feColorMatrix in="SourceAlpha" type="matrix" values="0 0 0 0 0 0 0 0 0 0 0 0 0 0 0 0 0 0 127 0" result="hardAlpha"/>
<feOffset dy="14.08"/>
<feGaussianBlur stdDeviation="2.56"/>
<feColorMatrix type="matrix" values="0 0 0 0 0.309804 0 0 0 0 0.309804 0 0 0 0 0.309804 0 0 0 0.01 0"/>
<feBlend mode="normal" in2="effect3_dropShadow_268_1770" result="effect4_dropShadow_268_1770"/>
<feBlend mode="normal" in="SourceGraphic" in2="effect4_dropShadow_268_1770" result="shape"/>
</filter>
</defs>
</svg>
