<svg width="30" height="30" viewBox="0 0 30 30" fill="none" xmlns="http://www.w3.org/2000/svg">
<path d="M9.20278 10.4791C10.2502 12.6607 11.6781 14.7053 13.4864 16.5136C15.2947 18.3219 17.3393 19.7498 19.5209 20.7972C19.7086 20.8873 19.8024 20.9324 19.9211 20.967C20.343 21.09 20.8611 21.0016 21.2184 20.7458C21.319 20.6738 21.405 20.5877 21.577 20.4157C22.1032 19.8896 22.3662 19.6265 22.6308 19.4545C23.6284 18.8059 24.9145 18.8059 25.9121 19.4545C26.1766 19.6265 26.4397 19.8896 26.9658 20.4157L27.2591 20.709C28.0589 21.5088 28.4588 21.9087 28.676 22.3381C29.108 23.1923 29.108 24.201 28.676 25.0551C28.4588 25.4846 28.0589 25.8845 27.2591 26.6843L27.0218 26.9215C26.2248 27.7186 25.8263 28.1171 25.2844 28.4215C24.6832 28.7592 23.7494 29.002 23.0598 29C22.4384 28.9981 22.0136 28.8776 21.1642 28.6365C16.5991 27.3408 12.2915 24.8961 8.6977 21.3023C5.10395 17.7085 2.65922 13.4009 1.36351 8.83582C1.12241 7.98636 1.00186 7.56163 1.00001 6.94017C0.997961 6.25058 1.2408 5.31678 1.57854 4.71555C1.88291 4.17373 2.28143 3.7752 3.07848 2.97815L3.31571 2.74092C4.1155 1.94114 4.51539 1.54125 4.94487 1.32402C5.79901 0.891995 6.80772 0.891995 7.66186 1.32402C8.09134 1.54125 8.49123 1.94114 9.29102 2.74092L9.58428 3.03419C10.1104 3.56033 10.3735 3.82339 10.5455 4.08793C11.1941 5.08553 11.1941 6.37162 10.5455 7.36923C10.3735 7.63376 10.1104 7.89683 9.58429 8.42296C9.41225 8.595 9.32624 8.68101 9.25424 8.78156C8.99838 9.13888 8.91004 9.65696 9.03303 10.0789C9.06764 10.1976 9.11269 10.2914 9.20278 10.4791Z" stroke="#667085" stroke-width="2" stroke-linecap="round" stroke-linejoin="round"/>
</svg>
