<svg width="469" height="40" viewBox="0 0 469 40" fill="none" xmlns="http://www.w3.org/2000/svg">
<path d="M0 16C0 7.16344 7.16344 0 16 0H453C461.837 0 469 7.16344 469 16V40H0V16Z" fill="#1570EF"/>
<mask id="mask0_268_1665" style="mask-type:alpha" maskUnits="userSpaceOnUse" x="0" y="0" width="469" height="40">
<path d="M0 16C0 7.16344 7.16344 0 16 0H453C461.837 0 469 7.16344 469 16V40H0V16Z" fill="#1570EF"/>
</mask>
<g mask="url(#mask0_268_1665)">
<path d="M44.3692 3.50234C44.3692 3.50234 33.985 39.3837 20.8025 41.407C7.61993 43.4304 6.21221 41.2005 8.36845 28.1214C10.5247 15.0423 44.3692 3.50234 44.3692 3.50234Z" fill="#194185"/>
<path d="M59.9464 21.5975C59.9464 21.5975 36.1499 49.1662 23.5705 45.2707C10.9912 41.3752 10.6385 38.7738 17.8595 28.0199C25.0804 17.2661 59.9464 21.5975 59.9464 21.5975Z" fill="#EFF8FF"/>
<mask id="mask1_268_1665" style="mask-type:alpha" maskUnits="userSpaceOnUse" x="13" y="20" width="47" height="26">
<path d="M59.9464 21.5975C59.9464 21.5975 36.1499 49.1662 23.5705 45.2707C10.9912 41.3752 10.6385 38.7738 17.8595 28.0199C25.0804 17.2661 59.9464 21.5975 59.9464 21.5975Z" fill="white"/>
</mask>
<g mask="url(#mask1_268_1665)">
<path fill-rule="evenodd" clip-rule="evenodd" d="M13.172 39.8888C13.1721 39.8886 13.1723 39.8885 12.821 39.5327C12.4697 39.1769 12.4699 39.1767 12.4702 39.1764L12.471 39.1756L12.4735 39.1731L12.4817 39.1652L12.5112 39.1369C12.5367 39.1127 12.574 39.0777 12.6235 39.0325C12.7224 38.9421 12.87 38.8107 13.0692 38.6425C13.4675 38.3061 14.072 37.8223 14.9061 37.2235C16.5743 36.0258 19.1603 34.3686 22.8508 32.5112C30.2319 28.7963 42.0279 24.2822 59.7309 21.0409L59.911 22.0245C42.293 25.2503 30.5889 29.7362 23.3003 33.4045C19.6559 35.2387 17.1146 36.8689 15.4893 38.0358C14.6766 38.6193 14.0928 39.087 13.7144 39.4065C13.5252 39.5663 13.3874 39.689 13.2981 39.7707C13.2534 39.8115 13.2208 39.8421 13.2 39.8619L13.1775 39.8835L13.1727 39.888L13.172 39.8888Z" fill="#1570EF"/>
<path fill-rule="evenodd" clip-rule="evenodd" d="M58.8552 23.5209C58.8555 23.5209 58.8556 23.5208 58.9998 23.9996C59.144 24.4783 59.1438 24.4784 59.1435 24.4785L59.1133 24.4875L59.0243 24.5141C58.9461 24.5374 58.8307 24.5716 58.6815 24.6155C58.3831 24.7032 57.9495 24.8296 57.4076 24.9843C56.3238 25.2937 54.8066 25.7165 53.0718 26.1708C49.6073 27.078 45.2566 28.1154 41.7586 28.6196C40.0161 28.8708 38.4491 28.9954 37.2998 28.8924C36.7301 28.8413 36.2119 28.7305 35.8198 28.5144C35.4042 28.2854 35.0959 27.9121 35.0858 27.3845C35.0767 26.9128 35.3124 26.4225 35.6786 25.9297C36.0541 25.4245 36.6178 24.8492 37.3801 24.1948C38.9065 22.8845 41.2916 21.2045 44.7368 19.0748L45.2626 19.9254C41.8328 22.0456 39.4992 23.6936 38.0315 24.9536C37.2967 25.5843 36.7945 26.1047 36.4812 26.5262C36.1587 26.9602 36.0829 27.2277 36.0856 27.3653C36.0871 27.447 36.1139 27.5347 36.3025 27.6386C36.5146 27.7555 36.8699 27.8498 37.3891 27.8964C38.4176 27.9886 39.8897 27.8787 41.6159 27.6299C45.0555 27.134 49.3611 26.1088 52.8185 25.2034C54.5446 24.7514 56.0547 24.3305 57.1331 24.0227C57.6722 23.8688 58.1033 23.7432 58.3994 23.6561C58.5475 23.6126 58.6618 23.5787 58.7389 23.5557L58.8264 23.5296L58.8552 23.5209Z" fill="#1570EF"/>
<path fill-rule="evenodd" clip-rule="evenodd" d="M50.0346 34.1492C50.0349 34.1491 50.035 34.1491 50.0853 34.6549C50.1356 35.1607 50.1354 35.1607 50.135 35.1607L50.1039 35.1626L50.0129 35.168C49.9331 35.1726 49.8154 35.1791 49.6629 35.187C49.3581 35.2028 48.9143 35.2238 48.3571 35.2451C47.2429 35.2877 45.6744 35.3314 43.8554 35.3356C40.2229 35.344 35.5703 35.1953 31.5403 34.5605C29.5266 34.2432 27.6459 33.8013 26.1179 33.1857C24.6044 32.576 23.3537 31.7629 22.7149 30.6518C22.0503 29.4957 22.117 28.1468 22.9591 26.6472C23.7912 25.1654 25.4052 23.4799 27.95 21.5459L28.5913 22.3579C26.0863 24.2616 24.5947 25.8514 23.8582 27.1631C23.1317 28.4569 23.1669 29.4197 23.6005 30.1741C24.0601 30.9735 25.0375 31.6697 26.475 32.2488C27.8979 32.822 29.6909 33.2484 31.6664 33.5596C35.615 34.1816 40.2033 34.3304 43.8171 34.322C45.6213 34.3178 47.1773 34.2745 48.2818 34.2323C48.834 34.2112 49.2732 34.1903 49.5739 34.1748C49.7242 34.167 49.8399 34.1606 49.9178 34.1561L50.0059 34.1509L50.028 34.1496L50.0346 34.1492Z" fill="#1570EF"/>
</g>
<mask id="mask2_268_1665" style="mask-type:alpha" maskUnits="userSpaceOnUse" x="13" y="20" width="47" height="26">
<path d="M59.9464 21.5975C59.9464 21.5975 36.1499 49.1662 23.5705 45.2707C10.9912 41.3752 10.6385 38.7738 17.8595 28.0199C25.0804 17.2661 59.9464 21.5975 59.9464 21.5975Z" fill="white"/>
</mask>
<g mask="url(#mask2_268_1665)">
<path fill-rule="evenodd" clip-rule="evenodd" d="M13.172 39.8888C13.1721 39.8886 13.1723 39.8885 12.821 39.5327C12.4697 39.1769 12.4699 39.1767 12.4702 39.1764L12.471 39.1756L12.4735 39.1731L12.4817 39.1652L12.5112 39.1369C12.5367 39.1127 12.574 39.0777 12.6235 39.0325C12.7224 38.9421 12.87 38.8107 13.0692 38.6425C13.4675 38.3061 14.072 37.8223 14.9061 37.2235C16.5743 36.0258 19.1603 34.3686 22.8508 32.5112C30.2319 28.7963 42.0279 24.2822 59.7309 21.0409L59.911 22.0245C42.293 25.2503 30.5889 29.7362 23.3003 33.4045C19.6559 35.2387 17.1146 36.8689 15.4893 38.0358C14.6766 38.6193 14.0928 39.087 13.7144 39.4065C13.5252 39.5663 13.3874 39.689 13.2981 39.7707C13.2534 39.8115 13.2208 39.8421 13.2 39.8619L13.1775 39.8835L13.1727 39.888L13.172 39.8888Z" fill="#1570EF"/>
<path fill-rule="evenodd" clip-rule="evenodd" d="M58.8552 23.5209C58.8555 23.5209 58.8556 23.5208 58.9998 23.9996C59.144 24.4783 59.1438 24.4784 59.1435 24.4785L59.1133 24.4875L59.0243 24.5141C58.9461 24.5374 58.8307 24.5716 58.6815 24.6155C58.3831 24.7032 57.9495 24.8296 57.4076 24.9843C56.3238 25.2937 54.8066 25.7165 53.0718 26.1708C49.6073 27.078 45.2566 28.1154 41.7586 28.6196C40.0161 28.8708 38.4491 28.9954 37.2998 28.8924C36.7301 28.8413 36.2119 28.7305 35.8198 28.5144C35.4042 28.2854 35.0959 27.9121 35.0858 27.3845C35.0767 26.9128 35.3124 26.4225 35.6786 25.9297C36.0541 25.4245 36.6178 24.8492 37.3801 24.1948C38.9065 22.8845 41.2916 21.2045 44.7368 19.0748L45.2626 19.9254C41.8328 22.0456 39.4992 23.6936 38.0315 24.9536C37.2967 25.5843 36.7945 26.1047 36.4812 26.5262C36.1587 26.9602 36.0829 27.2277 36.0856 27.3653C36.0871 27.447 36.1139 27.5347 36.3025 27.6386C36.5146 27.7555 36.8699 27.8498 37.3891 27.8964C38.4176 27.9886 39.8897 27.8787 41.6159 27.6299C45.0555 27.134 49.3611 26.1088 52.8185 25.2034C54.5446 24.7514 56.0547 24.3305 57.1331 24.0227C57.6722 23.8688 58.1033 23.7432 58.3994 23.6561C58.5475 23.6126 58.6618 23.5787 58.7389 23.5557L58.8264 23.5296L58.8552 23.5209Z" fill="#1570EF"/>
<path fill-rule="evenodd" clip-rule="evenodd" d="M50.0346 34.1492C50.0349 34.1491 50.035 34.1491 50.0853 34.6549C50.1356 35.1607 50.1354 35.1607 50.135 35.1607L50.1039 35.1626L50.0129 35.168C49.9331 35.1726 49.8154 35.1791 49.6629 35.187C49.3581 35.2028 48.9143 35.2238 48.3571 35.2451C47.2429 35.2877 45.6744 35.3314 43.8554 35.3356C40.2229 35.344 35.5703 35.1953 31.5403 34.5605C29.5266 34.2432 27.6459 33.8013 26.1179 33.1857C24.6044 32.576 23.3537 31.7629 22.7149 30.6518C22.0503 29.4957 22.117 28.1468 22.9591 26.6472C23.7912 25.1654 25.4052 23.4799 27.95 21.5459L28.5913 22.3579C26.0863 24.2616 24.5947 25.8514 23.8582 27.1631C23.1317 28.4569 23.1669 29.4197 23.6005 30.1741C24.0601 30.9735 25.0375 31.6697 26.475 32.2488C27.8979 32.822 29.6909 33.2484 31.6664 33.5596C35.615 34.1816 40.2033 34.3304 43.8171 34.322C45.6213 34.3178 47.1773 34.2745 48.2818 34.2323C48.834 34.2112 49.2732 34.1903 49.5739 34.1748C49.7242 34.167 49.8399 34.1606 49.9178 34.1561L50.0059 34.1509L50.028 34.1496L50.0346 34.1492Z" fill="#1570EF"/>
</g>
<path d="M427.606 6.70433C427.606 6.70433 409.605 39.4349 417.506 50.1801C425.406 60.9253 427.977 60.3418 435.692 49.5619C443.406 38.7821 427.606 6.70433 427.606 6.70433Z" fill="#194185"/>
<path d="M403.797 8.50546C403.797 8.50546 401.162 44.8285 412.817 50.9587C424.472 57.0889 426.559 55.4969 429.046 42.7846C431.533 30.0723 403.797 8.50546 403.797 8.50546Z" fill="#EFF8FF"/>
<mask id="mask3_268_1665" style="mask-type:alpha" maskUnits="userSpaceOnUse" x="403" y="8" width="27" height="47">
<path d="M403.798 8.50546C403.798 8.50546 401.162 44.8285 412.817 50.9587C424.472 57.0889 426.56 55.4969 429.047 42.7846C431.534 30.0723 403.798 8.50546 403.798 8.50546Z" fill="white"/>
</mask>
<g mask="url(#mask3_268_1665)">
<path fill-rule="evenodd" clip-rule="evenodd" d="M423.979 54.4961C423.979 54.4959 423.979 54.4957 424.479 54.4921C424.979 54.4885 424.979 54.4881 424.979 54.4877L424.979 54.4866L424.979 54.4831L424.979 54.4717L424.978 54.4309C424.977 54.3957 424.975 54.3446 424.972 54.2776C424.966 54.1437 424.954 53.9465 424.932 53.6868C424.888 53.1672 424.802 52.3977 424.635 51.3847C424.3 49.3585 423.641 46.3587 422.341 42.4369C419.742 34.5931 414.582 23.0647 404.343 8.26372L403.521 8.83264C413.711 23.5625 418.825 35.006 421.392 42.7515C422.675 46.6244 423.322 49.5735 423.648 51.5476C423.811 52.5347 423.894 53.2781 423.936 53.7716C423.957 54.0183 423.967 54.2025 423.973 54.3235C423.976 54.384 423.977 54.4286 423.978 54.4573L423.979 54.4885L423.979 54.4951L423.979 54.4961Z" fill="#1570EF"/>
<path fill-rule="evenodd" clip-rule="evenodd" d="M403.211 10.6372C403.211 10.6369 403.211 10.6368 402.771 10.8738C402.33 11.1107 402.33 11.1109 402.331 11.1112L402.346 11.1389L402.39 11.2206C402.429 11.2924 402.486 11.3981 402.561 11.5346C402.71 11.8075 402.928 12.2032 403.202 12.6956C403.75 13.6802 404.525 15.0514 405.432 16.5985C407.243 19.6882 409.589 23.496 411.709 26.3242C412.764 27.7331 413.785 28.9283 414.672 29.6673C415.111 30.0336 415.556 30.3213 415.986 30.4454C416.442 30.577 416.924 30.5306 417.304 30.1643C417.644 29.8369 417.823 29.3233 417.912 28.7159C418.003 28.0931 418.011 27.2877 417.934 26.286C417.779 24.2803 417.278 21.4062 416.344 17.465L415.371 17.6955C416.301 21.6191 416.788 24.4342 416.937 26.3628C417.011 27.3283 416.999 28.0514 416.923 28.571C416.844 29.106 416.709 29.3489 416.61 29.4444C416.551 29.5011 416.47 29.5443 416.263 29.4846C416.031 29.4175 415.712 29.2331 415.312 28.8993C414.519 28.2379 413.555 27.1202 412.509 25.7245C410.425 22.9436 408.102 19.1762 406.295 16.0928C405.392 14.5534 404.621 13.1887 404.075 12.209C403.803 11.7192 403.586 11.3257 403.438 11.0549C403.364 10.9195 403.307 10.8147 403.269 10.744L403.225 10.6637L403.211 10.6372Z" fill="#1570EF"/>
<path fill-rule="evenodd" clip-rule="evenodd" d="M401.945 24.3913C401.944 24.3911 401.944 24.391 401.551 24.7134C401.159 25.0358 401.159 25.036 401.159 25.0363L401.18 25.0596L401.24 25.1276C401.293 25.1873 401.372 25.2751 401.474 25.3884C401.679 25.6149 401.978 25.9433 402.358 26.352C403.116 27.1694 404.195 28.3084 405.48 29.5965C408.045 32.1687 411.442 35.3505 414.743 37.7484C416.392 38.9465 418.036 39.9624 419.552 40.6063C421.054 41.244 422.513 41.5522 423.75 41.2171C425.038 40.8684 425.943 39.8666 426.407 38.2104C426.865 36.5738 426.913 34.2407 426.479 31.0741L425.451 31.1957C425.879 34.3127 425.811 36.4916 425.406 37.9403C425.006 39.3693 424.301 40.0258 423.461 40.2533C422.571 40.4944 421.387 40.2966 419.961 39.6909C418.549 39.0913 416.979 38.1264 415.361 36.9509C412.127 34.6015 408.774 31.4652 406.223 28.9062C404.949 27.6286 403.878 26.4987 403.126 25.6884C402.751 25.2834 402.454 24.9584 402.253 24.7349C402.152 24.6232 402.074 24.5369 402.022 24.4787L401.964 24.4128L401.949 24.3963L401.945 24.3913Z" fill="#1570EF"/>
</g>
<mask id="mask4_268_1665" style="mask-type:alpha" maskUnits="userSpaceOnUse" x="403" y="8" width="27" height="47">
<path d="M403.798 8.50546C403.798 8.50546 401.162 44.8285 412.817 50.9587C424.472 57.0889 426.56 55.4969 429.047 42.7846C431.534 30.0723 403.798 8.50546 403.798 8.50546Z" fill="white"/>
</mask>
<g mask="url(#mask4_268_1665)">
<path fill-rule="evenodd" clip-rule="evenodd" d="M423.979 54.4961C423.979 54.4959 423.979 54.4957 424.479 54.4921C424.979 54.4885 424.979 54.4881 424.979 54.4877L424.979 54.4866L424.979 54.4831L424.979 54.4717L424.978 54.4309C424.977 54.3957 424.975 54.3446 424.972 54.2776C424.966 54.1437 424.954 53.9465 424.932 53.6868C424.888 53.1672 424.802 52.3977 424.635 51.3847C424.3 49.3585 423.641 46.3587 422.341 42.4369C419.742 34.5931 414.582 23.0647 404.343 8.26372L403.521 8.83264C413.711 23.5625 418.825 35.006 421.392 42.7515C422.675 46.6244 423.322 49.5735 423.648 51.5476C423.811 52.5347 423.894 53.2781 423.936 53.7716C423.957 54.0183 423.967 54.2025 423.973 54.3235C423.976 54.384 423.977 54.4286 423.978 54.4573L423.979 54.4885L423.979 54.4951L423.979 54.4961Z" fill="#1570EF"/>
<path fill-rule="evenodd" clip-rule="evenodd" d="M403.211 10.6372C403.211 10.6369 403.211 10.6368 402.771 10.8738C402.33 11.1107 402.33 11.1109 402.331 11.1112L402.346 11.1389L402.39 11.2206C402.429 11.2924 402.486 11.3981 402.561 11.5346C402.71 11.8075 402.928 12.2032 403.202 12.6956C403.75 13.6802 404.525 15.0514 405.432 16.5985C407.243 19.6882 409.589 23.496 411.709 26.3242C412.764 27.7331 413.785 28.9283 414.672 29.6673C415.111 30.0336 415.556 30.3213 415.986 30.4454C416.442 30.577 416.924 30.5306 417.304 30.1643C417.644 29.8369 417.823 29.3233 417.912 28.7159C418.003 28.0931 418.011 27.2877 417.934 26.286C417.779 24.2803 417.278 21.4062 416.344 17.465L415.371 17.6955C416.301 21.6191 416.788 24.4342 416.937 26.3628C417.011 27.3283 416.999 28.0514 416.923 28.571C416.844 29.106 416.709 29.3489 416.61 29.4444C416.551 29.5011 416.47 29.5443 416.263 29.4846C416.031 29.4175 415.712 29.2331 415.312 28.8993C414.519 28.2379 413.555 27.1202 412.509 25.7245C410.425 22.9436 408.102 19.1762 406.295 16.0928C405.392 14.5534 404.621 13.1887 404.075 12.209C403.803 11.7192 403.586 11.3257 403.438 11.0549C403.364 10.9195 403.307 10.8147 403.269 10.744L403.225 10.6637L403.211 10.6372Z" fill="#1570EF"/>
<path fill-rule="evenodd" clip-rule="evenodd" d="M401.945 24.3913C401.944 24.3911 401.944 24.391 401.551 24.7134C401.159 25.0358 401.159 25.036 401.159 25.0363L401.18 25.0596L401.24 25.1276C401.293 25.1873 401.372 25.2751 401.474 25.3884C401.679 25.6149 401.978 25.9433 402.358 26.352C403.116 27.1694 404.195 28.3084 405.48 29.5965C408.045 32.1687 411.442 35.3505 414.743 37.7484C416.392 38.9465 418.036 39.9624 419.552 40.6063C421.054 41.244 422.513 41.5522 423.75 41.2171C425.038 40.8684 425.943 39.8666 426.407 38.2104C426.865 36.5738 426.913 34.2407 426.479 31.0741L425.451 31.1957C425.879 34.3127 425.811 36.4916 425.406 37.9403C425.006 39.3693 424.301 40.0258 423.461 40.2533C422.571 40.4944 421.387 40.2966 419.961 39.6909C418.549 39.0913 416.979 38.1264 415.361 36.9509C412.127 34.6015 408.774 31.4652 406.223 28.9062C404.949 27.6286 403.878 26.4987 403.126 25.6884C402.751 25.2834 402.454 24.9584 402.253 24.7349C402.152 24.6232 402.074 24.5369 402.022 24.4787L401.964 24.4128L401.949 24.3963L401.945 24.3913Z" fill="#1570EF"/>
</g>
<path d="M283.355 35.8558C283.355 35.8558 282.216 -1.48067 294.14 -7.45515C306.064 -13.4296 308.089 -11.74 310.054 1.36923C312.019 14.4784 283.355 35.8558 283.355 35.8558Z" fill="#194185"/>
<path d="M262.973 23.4199C262.973 23.4199 277.151 -10.1252 290.319 -10.2817C303.487 -10.4382 304.621 -8.07082 301.053 4.38107C297.484 16.833 262.973 23.4199 262.973 23.4199Z" fill="#EFF8FF"/>
<mask id="mask5_268_1665" style="mask-type:alpha" maskUnits="userSpaceOnUse" x="262" y="-11" width="41" height="35">
<path d="M262.973 23.4199C262.973 23.4199 277.152 -10.1252 290.32 -10.2817C303.487 -10.4382 304.622 -8.07081 301.053 4.38107C297.484 16.833 262.973 23.4199 262.973 23.4199Z" fill="white"/>
</mask>
<g mask="url(#mask5_268_1665)">
<path fill-rule="evenodd" clip-rule="evenodd" d="M301.868 -8.3539C301.868 -8.35374 301.868 -8.35353 302.312 -8.12287C302.755 -7.8922 302.755 -7.89188 302.755 -7.8915L302.755 -7.89047L302.753 -7.88741L302.748 -7.87732L302.728 -7.84139C302.711 -7.81048 302.687 -7.76573 302.653 -7.70751C302.587 -7.59107 302.487 -7.42074 302.349 -7.19949C302.073 -6.75699 301.647 -6.11086 301.037 -5.28482C299.817 -3.63267 297.865 -1.2613 294.923 1.63979C289.04 7.44222 279.201 15.3612 263.349 23.8833L262.876 23.0025C278.651 14.5213 288.412 6.65745 294.221 0.927807C297.126 -1.93713 299.044 -4.2691 300.232 -5.87877C300.826 -6.68364 301.238 -7.30805 301.5 -7.72835C301.631 -7.93851 301.725 -8.09765 301.785 -8.20283C301.815 -8.25542 301.836 -8.29452 301.85 -8.31976L301.865 -8.34718L301.868 -8.353L301.868 -8.3539Z" fill="#1570EF"/>
<path fill-rule="evenodd" clip-rule="evenodd" d="M263.421 21.2542C263.42 21.2544 263.42 21.2544 263.136 20.8431C262.852 20.4318 262.852 20.4317 262.852 20.4315L262.878 20.4136L262.955 20.361C263.022 20.3148 263.121 20.2468 263.25 20.1592C263.507 19.984 263.881 19.7306 264.349 19.4169C265.285 18.7897 266.599 17.9212 268.111 16.956C271.129 15.0286 274.951 12.7051 278.125 11.1508C279.706 10.3765 281.159 9.77669 282.284 9.52177C282.842 9.3954 283.369 9.34164 283.809 9.42684C284.275 9.51716 284.683 9.77768 284.854 10.2767C285.008 10.7229 284.934 11.2619 284.737 11.8432C284.535 12.4394 284.175 13.16 283.651 14.0169C282.601 15.7327 280.847 18.0641 278.222 21.1491L277.461 20.5011C280.073 17.4299 281.788 15.1447 282.798 13.4949C283.303 12.669 283.621 12.0195 283.79 11.5221C283.964 11.01 283.954 10.7322 283.909 10.6021C283.882 10.5248 283.83 10.4495 283.619 10.4086C283.381 10.3625 283.014 10.3819 282.505 10.4971C281.498 10.7252 280.131 11.2819 278.565 12.0489C275.444 13.5772 271.661 15.8754 268.649 17.7989C267.145 18.7592 265.837 19.6236 264.905 20.2477C264.44 20.5598 264.068 20.8117 263.813 20.9856C263.685 21.0725 263.587 21.1398 263.521 21.1854L263.445 21.2371L263.421 21.2542Z" fill="#1570EF"/>
<path fill-rule="evenodd" clip-rule="evenodd" d="M268.55 8.43043C268.55 8.43051 268.55 8.43054 268.347 7.96468C268.144 7.49882 268.144 7.49873 268.144 7.49859L268.173 7.48723L268.258 7.4542C268.333 7.4253 268.443 7.3829 268.585 7.32859C268.871 7.21995 269.286 7.06361 269.81 6.8722C270.857 6.48943 272.337 5.96612 274.067 5.40343C277.521 4.2797 281.994 2.99217 286.024 2.35854C288.038 2.04193 289.964 1.88484 291.607 2.00134C293.235 2.11673 294.675 2.50639 295.624 3.36761C296.611 4.2637 296.962 5.56785 296.621 7.25361C296.285 8.91937 295.266 11.0191 293.439 13.6413L292.579 13.0655C294.378 10.4844 295.309 8.51332 295.607 7.03885C295.901 5.58438 295.572 4.67891 294.928 4.0942C294.245 3.47462 293.101 3.11229 291.555 3.00269C290.025 2.89421 288.187 3.03914 286.212 3.34976C282.263 3.97058 277.851 5.23831 274.414 6.35624C272.699 6.91437 271.231 7.43349 270.193 7.81293C269.674 8.00263 269.262 8.15735 268.981 8.2645C268.84 8.31807 268.732 8.35974 268.659 8.38794L268.577 8.41994L268.557 8.42799L268.55 8.43043Z" fill="#1570EF"/>
</g>
<mask id="mask6_268_1665" style="mask-type:alpha" maskUnits="userSpaceOnUse" x="262" y="-11" width="41" height="35">
<path d="M262.973 23.4199C262.973 23.4199 277.152 -10.1252 290.32 -10.2817C303.487 -10.4382 304.622 -8.07081 301.053 4.38107C297.484 16.833 262.973 23.4199 262.973 23.4199Z" fill="white"/>
</mask>
<g mask="url(#mask6_268_1665)">
<path fill-rule="evenodd" clip-rule="evenodd" d="M301.868 -8.3539C301.868 -8.35374 301.868 -8.35353 302.312 -8.12287C302.755 -7.8922 302.755 -7.89188 302.755 -7.8915L302.755 -7.89047L302.753 -7.88741L302.748 -7.87732L302.728 -7.84139C302.711 -7.81048 302.687 -7.76573 302.653 -7.70751C302.587 -7.59107 302.487 -7.42074 302.349 -7.19949C302.073 -6.75699 301.647 -6.11086 301.037 -5.28482C299.817 -3.63267 297.865 -1.2613 294.923 1.63979C289.04 7.44222 279.201 15.3612 263.349 23.8833L262.876 23.0025C278.651 14.5213 288.412 6.65745 294.221 0.927807C297.126 -1.93713 299.044 -4.2691 300.232 -5.87877C300.826 -6.68364 301.238 -7.30805 301.5 -7.72835C301.631 -7.93851 301.725 -8.09765 301.785 -8.20283C301.815 -8.25542 301.836 -8.29452 301.85 -8.31976L301.865 -8.34718L301.868 -8.353L301.868 -8.3539Z" fill="#1570EF"/>
<path fill-rule="evenodd" clip-rule="evenodd" d="M263.421 21.2542C263.42 21.2544 263.42 21.2544 263.136 20.8431C262.852 20.4318 262.852 20.4317 262.852 20.4315L262.878 20.4136L262.955 20.361C263.022 20.3148 263.121 20.2468 263.25 20.1592C263.507 19.984 263.881 19.7306 264.349 19.4169C265.285 18.7897 266.599 17.9212 268.111 16.956C271.129 15.0286 274.951 12.7051 278.125 11.1508C279.706 10.3765 281.159 9.77669 282.284 9.52177C282.842 9.3954 283.369 9.34164 283.809 9.42684C284.275 9.51716 284.683 9.77768 284.854 10.2767C285.008 10.7229 284.934 11.2619 284.737 11.8432C284.535 12.4394 284.175 13.16 283.651 14.0169C282.601 15.7327 280.847 18.0641 278.222 21.1491L277.461 20.5011C280.073 17.4299 281.788 15.1447 282.798 13.4949C283.303 12.669 283.621 12.0195 283.79 11.5221C283.964 11.01 283.954 10.7322 283.909 10.6021C283.882 10.5248 283.83 10.4495 283.619 10.4086C283.381 10.3625 283.014 10.3819 282.505 10.4971C281.498 10.7252 280.131 11.2819 278.565 12.0489C275.444 13.5772 271.661 15.8754 268.649 17.7989C267.145 18.7592 265.837 19.6236 264.905 20.2477C264.44 20.5598 264.068 20.8117 263.813 20.9856C263.685 21.0725 263.587 21.1398 263.521 21.1854L263.445 21.2371L263.421 21.2542Z" fill="#1570EF"/>
<path fill-rule="evenodd" clip-rule="evenodd" d="M268.55 8.43043C268.55 8.43051 268.55 8.43054 268.347 7.96468C268.144 7.49882 268.144 7.49873 268.144 7.49859L268.173 7.48723L268.258 7.4542C268.333 7.4253 268.443 7.3829 268.585 7.32859C268.871 7.21995 269.286 7.06361 269.81 6.8722C270.857 6.48943 272.337 5.96612 274.067 5.40343C277.521 4.2797 281.994 2.99217 286.024 2.35854C288.038 2.04193 289.964 1.88484 291.607 2.00134C293.235 2.11673 294.675 2.50639 295.624 3.36761C296.611 4.2637 296.962 5.56785 296.621 7.25361C296.285 8.91937 295.266 11.0191 293.439 13.6413L292.579 13.0655C294.378 10.4844 295.309 8.51332 295.607 7.03885C295.901 5.58438 295.572 4.67891 294.928 4.0942C294.245 3.47462 293.101 3.11229 291.555 3.00269C290.025 2.89421 288.187 3.03914 286.212 3.34976C282.263 3.97058 277.851 5.23831 274.414 6.35624C272.699 6.91437 271.231 7.43349 270.193 7.81293C269.674 8.00263 269.262 8.15735 268.981 8.2645C268.84 8.31807 268.732 8.35974 268.659 8.38794L268.577 8.41994L268.557 8.42799L268.55 8.43043Z" fill="#1570EF"/>
</g>
</g>
</svg>
