<svg width="140" height="150" viewBox="0 0 140 150" fill="none" xmlns="http://www.w3.org/2000/svg">
<g filter="url(#filter0_dddd_277_1798)">
<rect x="6" y="2" width="128" height="128" rx="25.6" fill="#1570EF"/>
</g>
<path d="M22.5782 19.9673H24.4618L28.8909 30.7855H29.0436L33.4727 19.9673H35.3564V33H33.88V23.0982H33.7527L29.68 33H28.2545L24.1818 23.0982H24.0545V33H22.5782V19.9673ZM41.1934 33.2291C40.574 33.2291 40.0119 33.1124 39.507 32.8791C39.0022 32.6415 38.6013 32.3 38.3043 31.8545C38.0073 31.4048 37.8589 30.8618 37.8589 30.2255C37.8589 29.6655 37.9692 29.2115 38.1898 28.8636C38.4104 28.5115 38.7052 28.2358 39.0743 28.0364C39.4434 27.837 39.8507 27.6885 40.2961 27.5909C40.7458 27.4891 41.1977 27.4085 41.6516 27.3491C42.2455 27.2727 42.727 27.2155 43.0961 27.1773C43.4695 27.1348 43.741 27.0648 43.9107 26.9673C44.0846 26.8697 44.1716 26.7 44.1716 26.4582V26.4073C44.1716 25.7794 43.9998 25.2915 43.6561 24.9436C43.3167 24.5958 42.8013 24.4218 42.1098 24.4218C41.3928 24.4218 40.8307 24.5788 40.4234 24.8927C40.0161 25.2067 39.7298 25.5418 39.5643 25.8982L38.1389 25.3891C38.3934 24.7952 38.7328 24.3327 39.157 24.0018C39.5855 23.6667 40.0522 23.4333 40.557 23.3018C41.0661 23.1661 41.5667 23.0982 42.0589 23.0982C42.3728 23.0982 42.7334 23.1364 43.1407 23.2127C43.5522 23.2848 43.9489 23.4355 44.3307 23.6645C44.7167 23.8936 45.037 24.2394 45.2916 24.7018C45.5461 25.1642 45.6734 25.7836 45.6734 26.56V33H44.1716V31.6764H44.0952C43.9934 31.8885 43.8237 32.1155 43.5861 32.3573C43.3486 32.5991 43.0325 32.8048 42.638 32.9745C42.2434 33.1442 41.7619 33.2291 41.1934 33.2291ZM41.4225 31.88C42.0164 31.88 42.517 31.7633 42.9243 31.53C43.3358 31.2967 43.6455 30.9955 43.8534 30.6264C44.0655 30.2573 44.1716 29.8691 44.1716 29.4618V28.0873C44.108 28.1636 43.968 28.2336 43.7516 28.2973C43.5395 28.3567 43.2934 28.4097 43.0134 28.4564C42.7377 28.4988 42.4683 28.537 42.2052 28.5709C41.9464 28.6006 41.7364 28.6261 41.5752 28.6473C41.1849 28.6982 40.8201 28.7809 40.4807 28.8955C40.1455 29.0058 39.874 29.1733 39.6661 29.3982C39.4625 29.6188 39.3607 29.92 39.3607 30.3018C39.3607 30.8236 39.5537 31.2182 39.9398 31.4855C40.3301 31.7485 40.8243 31.88 41.4225 31.88ZM48.4145 33V23.2255H49.9164V27.4764H50.9091L54.4218 23.2255H56.3564L52.4109 27.9345L56.4073 33H54.4727L51.2655 28.8764H49.9164V33H48.4145ZM61.608 33.2036C60.6916 33.2036 59.9025 32.9873 59.2407 32.5545C58.5789 32.1218 58.0698 31.5258 57.7134 30.7664C57.357 30.007 57.1789 29.1394 57.1789 28.1636C57.1789 27.1709 57.3613 26.2948 57.7261 25.5355C58.0952 24.7718 58.6086 24.1758 59.2661 23.7473C59.928 23.3145 60.7001 23.0982 61.5825 23.0982C62.2698 23.0982 62.8892 23.2255 63.4407 23.48C63.9922 23.7345 64.444 24.0909 64.7961 24.5491C65.1483 25.0073 65.3667 25.5418 65.4516 26.1527H63.9498C63.8352 25.7073 63.5807 25.3127 63.1861 24.9691C62.7958 24.6212 62.2698 24.4473 61.608 24.4473C61.0225 24.4473 60.5092 24.6 60.068 24.9055C59.631 25.2067 59.2895 25.633 59.0434 26.1845C58.8016 26.7318 58.6807 27.3745 58.6807 28.1127C58.6807 28.8679 58.7995 29.5255 59.037 30.0855C59.2789 30.6455 59.6183 31.0803 60.0552 31.39C60.4964 31.6997 61.014 31.8545 61.608 31.8545C61.9983 31.8545 62.3525 31.7867 62.6707 31.6509C62.9889 31.5152 63.2583 31.32 63.4789 31.0655C63.6995 30.8109 63.8564 30.5055 63.9498 30.1491H65.4516C65.3667 30.7261 65.1567 31.2458 64.8216 31.7082C64.4907 32.1664 64.0516 32.5312 63.5043 32.8027C62.9613 33.07 62.3292 33.2036 61.608 33.2036ZM69.1489 30.7855L73.858 23.2255H75.5889V33H74.087V25.44L69.4034 33H67.647V23.2255H69.1489V30.7855ZM83.685 30.9636L87.0959 23.2255H88.5214L84.2959 33H83.0741L78.925 23.2255H80.325L83.685 30.9636ZM79.8414 23.2255V33H78.3395V23.2255H79.8414ZM87.5286 33V23.2255H89.0305V33H87.5286ZM92.3968 36.6655C92.1423 36.6655 91.9153 36.6442 91.7159 36.6018C91.5165 36.5636 91.3786 36.5255 91.3023 36.4873L91.6841 35.1636C92.0489 35.257 92.3714 35.2909 92.6514 35.2655C92.9314 35.24 93.1795 35.1148 93.3959 34.89C93.6165 34.6694 93.818 34.3109 94.0005 33.8145L94.2805 33.0509L90.6659 23.2255H92.295L94.9932 31.0145H95.095L97.7932 23.2255H99.4223L95.2732 34.4255C95.0865 34.9303 94.8553 35.3482 94.5795 35.6791C94.3038 36.0142 93.9835 36.2624 93.6186 36.4236C93.258 36.5848 92.8508 36.6655 92.3968 36.6655ZM106.75 30.9636L110.161 23.2255H111.586L107.361 33H106.139L101.99 23.2255H103.39L106.75 30.9636ZM102.906 23.2255V33H101.405V23.2255H102.906ZM110.594 33V23.2255H112.095V33H110.594ZM26.3455 55.2036C25.463 55.2036 24.6888 54.9936 24.0227 54.5736C23.3609 54.1536 22.8433 53.5661 22.47 52.8109C22.1009 52.0558 21.9164 51.1733 21.9164 50.1636C21.9164 49.1455 22.1009 48.2567 22.47 47.4973C22.8433 46.7379 23.3609 46.1482 24.0227 45.7282C24.6888 45.3082 25.463 45.0982 26.3455 45.0982C27.2279 45.0982 28 45.3082 28.6618 45.7282C29.3279 46.1482 29.8455 46.7379 30.2145 47.4973C30.5879 48.2567 30.7745 49.1455 30.7745 50.1636C30.7745 51.1733 30.5879 52.0558 30.2145 52.8109C29.8455 53.5661 29.3279 54.1536 28.6618 54.5736C28 54.9936 27.2279 55.2036 26.3455 55.2036ZM26.3455 53.8545C27.0158 53.8545 27.5673 53.6827 28 53.3391C28.4327 52.9955 28.753 52.5436 28.9609 51.9836C29.1688 51.4236 29.2727 50.817 29.2727 50.1636C29.2727 49.5103 29.1688 48.9015 28.9609 48.3373C28.753 47.773 28.4327 47.317 28 46.9691C27.5673 46.6212 27.0158 46.4473 26.3455 46.4473C25.6752 46.4473 25.1236 46.6212 24.6909 46.9691C24.2582 47.317 23.9379 47.773 23.73 48.3373C23.5221 48.9015 23.4182 49.5103 23.4182 50.1636C23.4182 50.817 23.5221 51.4236 23.73 51.9836C23.9379 52.5436 24.2582 52.9955 24.6909 53.3391C25.1236 53.6827 25.6752 53.8545 26.3455 53.8545ZM33.067 55V45.2255H40.7543V55H39.2525V46.6255H34.5689V55H33.067ZM44.7952 48.7636H47.5952C48.7407 48.7636 49.6167 49.0542 50.2234 49.6355C50.8301 50.2167 51.1334 50.9527 51.1334 51.8436C51.1334 52.4291 50.9977 52.9615 50.7261 53.4409C50.4546 53.9161 50.0558 54.2958 49.5298 54.58C49.0037 54.86 48.3589 55 47.5952 55H43.497V45.2255H44.9989V53.6H47.5952C48.1892 53.6 48.677 53.443 49.0589 53.1291C49.4407 52.8152 49.6316 52.4121 49.6316 51.92C49.6316 51.4024 49.4407 50.9803 49.0589 50.6536C48.677 50.327 48.1892 50.1636 47.5952 50.1636H44.7952V48.7636ZM52.6861 55V45.2255H54.188V55H52.6861ZM56.377 46.6255V45.2255H64.3189V46.6255H61.1116V55H59.6098V46.6255H56.377ZM68.8784 55.2291C68.259 55.2291 67.6969 55.1124 67.192 54.8791C66.6872 54.6415 66.2863 54.3 65.9893 53.8545C65.6924 53.4048 65.5439 52.8618 65.5439 52.2255C65.5439 51.6655 65.6542 51.2115 65.8748 50.8636C66.0954 50.5115 66.3902 50.2358 66.7593 50.0364C67.1284 49.837 67.5357 49.6885 67.9811 49.5909C68.4308 49.4891 68.8827 49.4085 69.3366 49.3491C69.9305 49.2727 70.412 49.2155 70.7811 49.1773C71.1545 49.1348 71.426 49.0648 71.5957 48.9673C71.7696 48.8697 71.8566 48.7 71.8566 48.4582V48.4073C71.8566 47.7794 71.6848 47.2915 71.3411 46.9436C71.0017 46.5958 70.4863 46.4218 69.7948 46.4218C69.0778 46.4218 68.5157 46.5788 68.1084 46.8927C67.7011 47.2067 67.4148 47.5418 67.2493 47.8982L65.8239 47.3891C66.0784 46.7952 66.4178 46.3327 66.842 46.0018C67.2705 45.6667 67.7372 45.4333 68.242 45.3018C68.7511 45.1661 69.2517 45.0982 69.7439 45.0982C70.0578 45.0982 70.4184 45.1364 70.8257 45.2127C71.2372 45.2848 71.6339 45.4355 72.0157 45.6645C72.4017 45.8936 72.722 46.2394 72.9766 46.7018C73.2311 47.1642 73.3584 47.7836 73.3584 48.56V55H71.8566V53.6764H71.7802C71.6784 53.8885 71.5087 54.1155 71.2711 54.3573C71.0336 54.5991 70.7175 54.8048 70.323 54.9745C69.9284 55.1442 69.4469 55.2291 68.8784 55.2291ZM69.1075 53.88C69.7014 53.88 70.202 53.7633 70.6093 53.53C71.0208 53.2967 71.3305 52.9955 71.5384 52.6264C71.7505 52.2573 71.8566 51.8691 71.8566 51.4618V50.0873C71.793 50.1636 71.653 50.2336 71.4366 50.2973C71.2245 50.3567 70.9784 50.4097 70.6984 50.4564C70.4227 50.4988 70.1533 50.537 69.8902 50.5709C69.6314 50.6006 69.4214 50.6261 69.2602 50.6473C68.8699 50.6982 68.5051 50.7809 68.1657 50.8955C67.8305 51.0058 67.559 51.1733 67.3511 51.3982C67.1475 51.6188 67.0457 51.92 67.0457 52.3018C67.0457 52.8236 67.2387 53.2182 67.6248 53.4855C68.0151 53.7485 68.5093 53.88 69.1075 53.88Z" fill="white"/>
<path d="M17.4716 98.5227V93.4943L32.2841 70.0909H36.4773V77.25H33.9205L23.9489 93.0511V93.3239H44.625V98.5227H17.4716ZM34.125 105V96.9886L34.1932 94.7386V70.0909H40.1591V105H34.125ZM62.9744 105.665C60.1676 105.665 57.7585 104.955 55.7472 103.534C53.7472 102.102 52.2074 100.04 51.1278 97.3466C50.0597 94.642 49.5256 91.3864 49.5256 87.5795C49.5369 83.7727 50.0767 80.5341 51.1449 77.8636C52.2244 75.1818 53.7642 73.1364 55.7642 71.7273C57.7756 70.3182 60.179 69.6136 62.9744 69.6136C65.7699 69.6136 68.1733 70.3182 70.1847 71.7273C72.196 73.1364 73.7358 75.1818 74.804 77.8636C75.8835 80.5455 76.4233 83.7841 76.4233 87.5795C76.4233 91.3977 75.8835 94.6591 74.804 97.3636C73.7358 100.057 72.196 102.114 70.1847 103.534C68.1847 104.955 65.7813 105.665 62.9744 105.665ZM62.9744 100.33C65.1563 100.33 66.8778 99.2557 68.1392 97.108C69.4119 94.9489 70.0483 91.7727 70.0483 87.5795C70.0483 84.8068 69.7585 82.4773 69.179 80.5909C68.5994 78.7045 67.7813 77.2841 66.7244 76.3295C65.6676 75.3636 64.4176 74.8807 62.9744 74.8807C60.804 74.8807 59.0881 75.9602 57.8267 78.1193C56.5653 80.267 55.929 83.4205 55.9176 87.5795C55.9063 90.3636 56.1847 92.7045 56.7528 94.6023C57.3324 96.5 58.1506 97.9318 59.2074 98.8977C60.2642 99.8523 61.5199 100.33 62.9744 100.33Z" fill="white"/>
<path d="M87.5866 85.3636L91.9205 93.0085L96.2926 85.3636H100.473L94.3494 95.1818L100.524 105H96.3438L91.9205 97.6619L87.5099 105H83.3168L89.4276 95.1818L83.3935 85.3636H87.5866ZM104.398 112.364V85.3636H108.131V88.5469H108.45C108.672 88.1378 108.991 87.6648 109.409 87.1278C109.827 86.5909 110.406 86.1222 111.148 85.7216C111.889 85.3125 112.869 85.108 114.088 85.108C115.673 85.108 117.088 85.5085 118.332 86.3097C119.577 87.1108 120.553 88.2656 121.26 89.7741C121.976 91.2827 122.334 93.098 122.334 95.2202C122.334 97.3423 121.98 99.1619 121.273 100.679C120.565 102.187 119.594 103.351 118.358 104.169C117.122 104.979 115.712 105.384 114.126 105.384C112.933 105.384 111.957 105.183 111.199 104.783C110.449 104.382 109.861 103.913 109.435 103.376C109.009 102.839 108.68 102.362 108.45 101.945H108.22V112.364H104.398ZM108.143 95.1818C108.143 96.5625 108.344 97.7727 108.744 98.8125C109.145 99.8523 109.724 100.666 110.483 101.254C111.241 101.834 112.17 102.124 113.27 102.124C114.412 102.124 115.366 101.821 116.134 101.216C116.901 100.602 117.48 99.7713 117.872 98.723C118.273 97.6747 118.473 96.4943 118.473 95.1818C118.473 93.8864 118.277 92.723 117.885 91.6918C117.501 90.6605 116.922 89.8466 116.146 89.25C115.379 88.6534 114.42 88.3551 113.27 88.3551C112.162 88.3551 111.224 88.6406 110.457 89.2116C109.699 89.7827 109.124 90.5795 108.732 91.6023C108.339 92.625 108.143 93.8182 108.143 95.1818Z" fill="white"/>
<defs>
<filter id="filter0_dddd_277_1798" x="0.88" y="0.72" width="138.24" height="148.48" filterUnits="userSpaceOnUse" color-interpolation-filters="sRGB">
<feFlood flood-opacity="0" result="BackgroundImageFix"/>
<feColorMatrix in="SourceAlpha" type="matrix" values="0 0 0 0 0 0 0 0 0 0 0 0 0 0 0 0 0 0 127 0" result="hardAlpha"/>
<feOffset dy="1.28"/>
<feGaussianBlur stdDeviation="1.28"/>
<feColorMatrix type="matrix" values="0 0 0 0 0.309804 0 0 0 0 0.309804 0 0 0 0 0.309804 0 0 0 0.1 0"/>
<feBlend mode="normal" in2="BackgroundImageFix" result="effect1_dropShadow_277_1798"/>
<feColorMatrix in="SourceAlpha" type="matrix" values="0 0 0 0 0 0 0 0 0 0 0 0 0 0 0 0 0 0 127 0" result="hardAlpha"/>
<feOffset dy="3.84"/>
<feGaussianBlur stdDeviation="1.92"/>
<feColorMatrix type="matrix" values="0 0 0 0 0.309804 0 0 0 0 0.309804 0 0 0 0 0.309804 0 0 0 0.09 0"/>
<feBlend mode="normal" in2="effect1_dropShadow_277_1798" result="effect2_dropShadow_277_1798"/>
<feColorMatrix in="SourceAlpha" type="matrix" values="0 0 0 0 0 0 0 0 0 0 0 0 0 0 0 0 0 0 127 0" result="hardAlpha"/>
<feOffset dy="7.68"/>
<feGaussianBlur stdDeviation="2.56"/>
<feColorMatrix type="matrix" values="0 0 0 0 0.309804 0 0 0 0 0.309804 0 0 0 0 0.309804 0 0 0 0.05 0"/>
<feBlend mode="normal" in2="effect2_dropShadow_277_1798" result="effect3_dropShadow_277_1798"/>
<feColorMatrix in="SourceAlpha" type="matrix" values="0 0 0 0 0 0 0 0 0 0 0 0 0 0 0 0 0 0 127 0" result="hardAlpha"/>
<feOffset dy="14.08"/>
<feGaussianBlur stdDeviation="2.56"/>
<feColorMatrix type="matrix" values="0 0 0 0 0.309804 0 0 0 0 0.309804 0 0 0 0 0.309804 0 0 0 0.01 0"/>
<feBlend mode="normal" in2="effect3_dropShadow_277_1798" result="effect4_dropShadow_277_1798"/>
<feBlend mode="normal" in="SourceGraphic" in2="effect4_dropShadow_277_1798" result="shape"/>
</filter>
</defs>
</svg>
