<svg width="86" height="90" viewBox="0 0 86 90" fill="none" xmlns="http://www.w3.org/2000/svg">
<path d="M44.7045 23.8182L51.4545 34.7102H51.6591L58.4091 23.8182H62.142L53.9091 36.9091L62.142 50H58.4091L51.6591 39.3125H51.4545L44.7045 50H40.9716L49.4091 36.9091L40.9716 23.8182H44.7045ZM66.2681 50V23.8182H75.1147C77.1687 23.8182 78.8477 24.1889 80.1516 24.9304C81.4641 25.6634 82.4357 26.6562 83.0664 27.9091C83.6971 29.1619 84.0124 30.5597 84.0124 32.1023C84.0124 33.6449 83.6971 35.0469 83.0664 36.3082C82.4442 37.5696 81.4812 38.5753 80.1772 39.3253C78.8732 40.0668 77.2028 40.4375 75.1658 40.4375H68.8249V37.625H75.0636C76.4698 37.625 77.5991 37.3821 78.4514 36.8963C79.3036 36.4105 79.9215 35.7543 80.305 34.9276C80.6971 34.0923 80.8931 33.1506 80.8931 32.1023C80.8931 31.054 80.6971 30.1165 80.305 29.2898C79.9215 28.4631 79.2994 27.8153 78.4386 27.3466C77.5778 26.8693 76.4357 26.6307 75.0124 26.6307H69.4386V50H66.2681Z" fill="#344054"/>
<path d="M25.6364 21.2045V13.7045H26.9091V21.2045H25.6364ZM22.5227 18.0909V16.8182H30.0227V18.0909H22.5227Z" fill="#98A2B3"/>
<path d="M13.9091 43.6136V21.1136H17.7273V43.6136H13.9091ZM4.56818 34.2727V30.4545H27.0682V34.2727H4.56818Z" fill="#344054"/>
<path d="M30.2727 61.4091V46.4091H32.8182V61.4091H30.2727ZM24.0455 55.1818V52.6364H39.0455V55.1818H24.0455Z" fill="#475467"/>
</svg>
