<svg width="327" height="327" viewBox="0 0 327 327" fill="none" xmlns="http://www.w3.org/2000/svg">
<g filter="url(#filter0_dd_47_987)">
<circle cx="163.5" cy="140.5" r="103.5" fill="url(#paint0_linear_47_987)"/>
</g>
<path d="M291 135.233C291 148.508 287.702 169.672 281.295 185.658C274.888 201.645 265.497 216.171 253.658 228.406C241.819 240.642 227.764 250.348 212.296 256.97C196.828 263.592 180.249 267 163.507 267C146.764 267 130.185 263.592 114.717 256.97C99.2489 250.348 85.1941 240.642 73.3553 228.406C61.5164 216.171 52.1254 201.645 45.7182 185.658C39.3111 169.672 36.4891 146.541 36.0134 135.233C35.5377 123.925 47.9064 121.959 48.7627 135.233C49.619 148.508 51.7306 166.228 57.4971 180.616C63.2635 195.004 71.7155 208.077 82.3704 219.089C93.0254 230.101 105.675 238.836 119.596 244.796C133.517 250.756 148.438 253.823 163.507 253.823C178.575 253.823 193.496 250.756 207.417 244.796C221.339 238.836 233.988 230.101 244.643 219.089C255.298 208.077 263.75 195.004 269.516 180.616C275.283 166.228 278.822 146.05 278.251 135.233C277.68 124.416 291 121.958 291 135.233Z" fill="url(#paint1_linear_47_987)"/>
<path d="M57.9171 131.691C57.9171 131.691 39.2146 151.25 39.5763 158.551C39.938 165.852 41.4732 167.189 51.6749 160.924C61.8766 154.659 57.9171 131.691 57.9171 131.691Z" fill="#1570EF"/>
<path d="M310.518 140.614C310.518 140.614 286.908 151.001 285.226 159.827C283.544 168.652 284.99 170.693 298.99 166.164C312.989 161.635 310.518 140.614 310.518 140.614Z" fill="#1570EF"/>
<path d="M262.628 165.271C262.628 165.271 243.643 196.35 251.194 207.139C258.745 217.927 261.33 217.469 269.365 207.309C277.4 197.149 262.628 165.271 262.628 165.271Z" fill="#1570EF"/>
<path d="M36.1328 213.489C36.1328 213.489 68.0096 200.771 74.2065 212.391C80.4035 224.011 78.8235 226.107 66.1257 228.667C53.4279 231.227 36.1328 213.489 36.1328 213.489Z" fill="#1570EF"/>
<path d="M118.443 215.416C118.443 215.416 152.756 227.62 153.678 240.757C154.599 253.893 152.302 255.164 139.663 252.325C127.025 249.485 118.443 215.416 118.443 215.416Z" fill="#1570EF"/>
<path d="M225 201C225 201 177.768 214.525 161.034 232.326C144.299 250.127 148.424 270.946 179.13 254.473C209.837 238 225 201 225 201Z" fill="#B2DDFF"/>
<path d="M226.004 201.011C226.004 201.011 181.768 215.525 165.034 233.326C148.299 251.127 152.424 271.945 183.13 255.473C213.837 239 226.004 201.011 226.004 201.011Z" fill="#1570EF"/>
<path d="M291 135.233C291 148.508 287.702 169.672 281.295 185.658C274.888 201.645 265.497 216.171 253.658 228.406C241.819 240.642 227.764 250.348 212.296 256.97C196.828 263.592 180.249 267 163.507 267C146.764 267 130.185 263.592 114.717 256.97C99.2489 250.348 85.1941 240.642 73.3553 228.406C61.5164 216.171 52.1254 201.645 45.7182 185.658C39.3111 169.672 36.4891 146.541 36.0134 135.233C35.5377 123.925 47.9064 121.959 48.7627 135.233C49.619 148.508 51.7306 166.228 57.4971 180.616C63.2635 195.004 71.7155 208.077 82.3704 219.089C93.0254 230.101 105.675 238.836 119.596 244.796C133.517 250.756 148.438 253.823 163.507 253.823C178.575 253.823 193.496 250.756 207.417 244.796C221.339 238.836 233.988 230.101 244.643 219.089C255.298 208.077 263.75 195.004 269.516 180.616C275.283 166.228 278.822 146.05 278.251 135.233C277.68 124.416 291 121.958 291 135.233Z" fill="url(#paint2_linear_47_987)"/>
<path d="M113.217 130.984C114.049 130.984 114.817 131.08 115.521 131.208C116.673 131.016 117.569 130.696 118.465 130.248L118.689 128.936H121.249V132.136C120.577 132.456 119.873 132.776 119.137 133.032C120.225 134.12 120.801 135.528 120.801 137.096C120.801 140.52 118.209 143.272 113.217 143.272C112.353 143.272 111.585 143.208 110.849 143.048C110.433 143.4 110.273 143.848 110.273 144.296C110.273 145.736 111.553 145.512 115.041 145.736C120.289 146.088 122.401 148.136 122.401 150.824C122.401 153.928 119.809 156.04 113.217 156.04C106.657 156.04 104.033 153.928 104.033 150.824C104.033 148.744 105.249 147.112 108.097 146.28C107.553 145.704 107.233 145.032 107.233 144.296C107.233 143.304 107.681 142.696 108.353 142.088C106.561 140.968 105.633 139.144 105.633 137.096C105.633 133.736 108.257 130.984 113.217 130.984ZM113.217 133.96C110.241 133.96 108.673 135.4 108.673 137.096C108.673 138.824 110.241 140.296 113.217 140.296C116.193 140.296 117.761 138.824 117.761 137.096C117.761 135.4 116.193 133.96 113.217 133.96ZM113.217 148.648C108.961 148.648 107.073 149.448 107.073 150.824C107.073 152.232 108.961 153.064 113.217 153.064C117.473 153.064 119.361 152.232 119.361 150.824C119.361 149.448 117.473 148.648 113.217 148.648ZM127.941 149H124.741V131.08H127.301L127.781 133.704C129.605 132.232 131.973 130.984 134.021 130.984C136.581 130.984 138.181 131.656 138.885 132.072V136.168H136.229L136.005 134.376C135.781 134.216 135.109 133.96 134.021 133.96C131.781 133.96 129.989 135.144 127.941 136.872V149ZM151.044 130.984C156.004 130.984 160.324 135.048 160.324 140.008C160.324 145.032 156.004 149.096 151.044 149.096C146.052 149.096 141.732 145.032 141.732 140.008C141.732 135.048 146.052 130.984 151.044 130.984ZM151.044 134.184C147.78 134.184 144.932 136.808 144.932 140.008C144.932 143.272 147.78 145.896 151.044 145.896C154.308 145.896 157.124 143.272 157.124 140.008C157.124 136.808 154.308 134.184 151.044 134.184ZM167.353 149L162.009 131.08H165.209L169.625 145.8H170.297L173.753 134.28H178.905L182.361 145.8H183.033L187.449 131.08H190.649L185.305 149H180.089L176.665 137.48H175.993L172.569 149H167.353ZM202.31 148.776L200.038 149.096C196.262 149.096 194.918 146.632 194.918 143.24V133.96H192.358V131.08H194.918L195.558 126.504H198.118V131.08H202.31V133.96H198.118V143.24C198.118 145.16 199.014 146.056 200.038 146.056H202.31V148.776ZM215.434 134.024C213.194 134.024 211.21 135.144 209.034 136.872V149H205.834V123.944H209.034V133.704C211.018 132.2 213.162 130.984 215.21 130.984C219.21 130.984 222.09 133.224 222.09 137.8V149H218.89V137.608C218.89 135.72 217.674 134.024 215.434 134.024Z" fill="white"/>
<path d="M73.5701 165.271C73.5701 165.271 92.5546 196.35 85.0036 207.139C77.4525 217.927 74.8676 217.469 66.8328 207.309C58.7979 197.149 73.5701 165.271 73.5701 165.271Z" fill="#1570EF"/>
<path d="M16.33 170.947C16.33 170.947 31.3108 195.857 41.4437 191.196C51.5765 186.535 51.5853 184.312 44.3337 176.079C37.0822 167.847 16.33 170.947 16.33 170.947Z" fill="#1570EF"/>
<path d="M19.0838 140.614C19.0838 140.614 42.6942 151.001 44.3761 159.827C46.058 168.652 44.6113 170.693 30.6122 166.164C16.613 161.635 19.0838 140.614 19.0838 140.614Z" fill="#1570EF"/>
<path d="M263.353 129.691C263.353 129.691 282.055 149.25 281.693 156.551C281.332 163.852 279.796 165.189 269.595 158.924C259.393 152.659 263.353 129.691 263.353 129.691Z" fill="#1570EF"/>
<path d="M300.065 213.489C300.065 213.489 268.188 200.771 261.991 212.391C255.794 224.011 257.374 226.107 270.072 228.667C282.77 231.227 300.065 213.489 300.065 213.489Z" fill="#1570EF"/>
<path d="M311.067 170.947C311.067 170.947 296.086 195.857 285.953 191.196C275.82 186.535 275.812 184.312 283.063 176.079C290.315 167.847 311.067 170.947 311.067 170.947Z" fill="#1570EF"/>
<defs>
<filter id="filter0_dd_47_987" x="0" y="0" width="327" height="327" filterUnits="userSpaceOnUse" color-interpolation-filters="sRGB">
<feFlood flood-opacity="0" result="BackgroundImageFix"/>
<feColorMatrix in="SourceAlpha" type="matrix" values="0 0 0 0 0 0 0 0 0 0 0 0 0 0 0 0 0 0 127 0" result="hardAlpha"/>
<feOffset dy="8.16544"/>
<feGaussianBlur stdDeviation="4.72669"/>
<feColorMatrix type="matrix" values="0 0 0 0 0 0 0 0 0 0 0 0 0 0 0 0 0 0 0.0329192 0"/>
<feBlend mode="normal" in2="BackgroundImageFix" result="effect1_dropShadow_47_987"/>
<feColorMatrix in="SourceAlpha" type="matrix" values="0 0 0 0 0 0 0 0 0 0 0 0 0 0 0 0 0 0 127 0" result="hardAlpha"/>
<feOffset dy="23"/>
<feGaussianBlur stdDeviation="30"/>
<feColorMatrix type="matrix" values="0 0 0 0 0 0 0 0 0 0 0 0 0 0 0 0 0 0 0.08 0"/>
<feBlend mode="normal" in2="effect1_dropShadow_47_987" result="effect2_dropShadow_47_987"/>
<feBlend mode="normal" in="SourceGraphic" in2="effect2_dropShadow_47_987" result="shape"/>
</filter>
<linearGradient id="paint0_linear_47_987" x1="163.5" y1="37" x2="163.5" y2="244" gradientUnits="userSpaceOnUse">
<stop stop-color="#7A5AF8"/>
<stop offset="1" stop-color="#84CAFF"/>
</linearGradient>
<linearGradient id="paint1_linear_47_987" x1="163.507" y1="3.46645" x2="163.507" y2="267" gradientUnits="userSpaceOnUse">
<stop stop-color="#84CAFF"/>
<stop offset="1" stop-color="#84CAFF"/>
</linearGradient>
<linearGradient id="paint2_linear_47_987" x1="163.507" y1="3.46645" x2="163.507" y2="267" gradientUnits="userSpaceOnUse">
<stop stop-color="#84CAFF"/>
<stop offset="1" stop-color="#84CAFF"/>
</linearGradient>
</defs>
</svg>

