<svg xmlns="http://www.w3.org/2000/svg" fill="none" viewBox="0 0 375 812"><g filter="url(#a)"><path fill="#BDB4FE" d="M299 34c-23 90 69 331-243 699 99-168 221 125 370-153 23-90-106 17-11-341-57-14 89-134-116-205Z"/></g><g filter="url(#b)"><path fill="#53B1FD" d="M60 36C3 107-100 408-147 370c73-179-92-189 35-472 57-72 214-196 262-158 47 38-274 171-90 296Z"/></g><g filter="url(#c)"><path fill="#53B1FD" d="M113 676c0 24 108 104 48 104-55-49-190-24-268-104 0-25 44-77 105-77 60 0-106 82 115 77Z"/></g><g filter="url(#d)"><ellipse cx="188" cy="237.5" fill="#fff" rx="161" ry="160.5"/></g><defs><filter id="a" width="772.8" height="1099.2" x="-144" y="-166" color-interpolation-filters="sRGB" filterUnits="userSpaceOnUse"><feFlood flood-opacity="0" result="BackgroundImageFix"/><feBlend in="SourceGraphic" in2="BackgroundImageFix" result="shape"/><feGaussianBlur result="effect1_foregroundBlur_32_823" stdDeviation="100"/></filter><filter id="b" width="716.6" height="1040.3" x="-362" y="-467" color-interpolation-filters="sRGB" filterUnits="userSpaceOnUse"><feFlood flood-opacity="0" result="BackgroundImageFix"/><feBlend in="SourceGraphic" in2="BackgroundImageFix" result="shape"/><feGaussianBlur result="effect1_foregroundBlur_32_823" stdDeviation="100"/></filter><filter id="c" width="686" height="581" x="-307" y="399" color-interpolation-filters="sRGB" filterUnits="userSpaceOnUse"><feFlood flood-opacity="0" result="BackgroundImageFix"/><feBlend in="SourceGraphic" in2="BackgroundImageFix" result="shape"/><feGaussianBlur result="effect1_foregroundBlur_32_823" stdDeviation="100"/></filter><filter id="d" width="522" height="521" x="-73" y="-23" color-interpolation-filters="sRGB" filterUnits="userSpaceOnUse"><feFlood flood-opacity="0" result="BackgroundImageFix"/><feBlend in="SourceGraphic" in2="BackgroundImageFix" result="shape"/><feGaussianBlur result="effect1_foregroundBlur_32_823" stdDeviation="50"/></filter></defs></svg>
